<svg xmlns="http://www.w3.org/2000/svg" viewBox="0 0 235.7 182.33"><defs><style>.cls-1{fill:#d8baa3;stroke:#000;stroke-miterlimit:10;}</style></defs><title>tape</title><g id="圖層_2" data-name="圖層 2"><g id="圖層_1-2" data-name="圖層 1"><polygon class="cls-1" points="234.62 0.5 135.5 0.5 100.2 0.5 1.08 0.5 13.3 14.83 1.08 29.16 1.08 30.97 12.36 44.2 1.08 57.42 1.08 58.24 13.39 72.67 1.08 87.11 1.08 87.62 13.05 101.65 1.3 115.44 13.44 129.68 1.08 144.16 1.08 144.87 13.46 159.39 1.08 173.9 1.08 174.56 7.08 181.6 1.08 181.6 1.08 181.83 100.2 181.83 135.5 181.83 234.62 181.83 234.62 181.6 228.62 181.6 234.62 174.56 234.62 173.9 222.24 159.39 234.62 144.87 234.62 144.16 222.26 129.68 234.41 115.44 222.65 101.65 234.62 87.62 234.62 87.11 222.31 72.67 234.62 58.24 234.62 57.42 223.34 44.2 234.62 30.97 234.62 29.16 222.4 14.83 234.62 0.5"/></g></g></svg>