<svg xmlns="http://www.w3.org/2000/svg" viewBox="0 0 89.27 77.35"><defs><style>.cls-1{fill:#bfb8b2;}</style></defs><title>天使計畫</title><g id="圖層_2" data-name="圖層 2"><g id="圖層_1-2" data-name="圖層 1"><path class="cls-1" d="M44.64,44.52c-8,0-15.7-1.86-21.6-5.23-7.2-4.12-11.33-10.33-11.33-17S15.84,9.35,23,5.23C28.94,1.86,36.61,0,44.64,0S60.33,1.86,66.23,5.23c7.2,4.12,11.33,10.32,11.33,17s-4.13,12.91-11.33,17C60.33,42.66,52.66,44.52,44.64,44.52Zm0-28.5c-11.47,0-16.91,5-16.91,6.24s5.44,6.24,16.91,6.24,16.9-5,16.9-6.24S56.11,16,44.64,16Z"/><path class="cls-1" d="M88,35.91c-2.81-3-5.16,1.4-7.46,4.49-3.05,4.1-10.17,8.72-17.1,10a34.36,34.36,0,0,1-12.68,0c1.41,7.54-2.61,10.89-2.61,10.89a36.14,36.14,0,0,0,14,13.95c5.44,3,8.95,2.27,11.92,1s2.34-6.41,2.34-6.41,4.22-.22,6.4-3-.65-7.41-.65-7.41,4.57-1.09,5-5.24S85.62,48,85.62,48,91.89,40,88,35.91Z"/><path class="cls-1" d="M38.51,50.43a34.32,34.32,0,0,1-12.67,0c-6.94-1.31-14.06-5.93-17.11-10-2.3-3.09-4.65-7.46-7.45-4.49C-2.62,40,3.65,48,3.65,48S1.72,50,2.14,54.12s5,5.24,5,5.24-2.83,4.58-.66,7.41,6.4,3,6.4,3-.63,5.1,2.34,6.41,6.48,2,11.92-1a36.06,36.06,0,0,0,14-13.95S37.1,58,38.51,50.43Z"/></g></g></svg>