<svg xmlns="http://www.w3.org/2000/svg" viewBox="0 0 559.46 168.53"><defs><style>.cls-1{fill:#76bf6d;stroke:#000;stroke-miterlimit:10;}.cls-2,.cls-4{fill:#fff;}.cls-2{opacity:0.3;isolation:isolate;}.cls-3{fill:#313131;}.cls-4{opacity:0.5;}</style></defs><title>共同主辦_1</title><g id="圖層_2" data-name="圖層 2"><g id="圖層_1-2" data-name="圖層 1"><path class="cls-1" d="M558.55,7.83l-8.71,13.41,8.71,13.41v.65l-8.69,13.39,8.53,13.15-8.27,12.74,8.42,13V88l-8.66,13.33,8.66,13.34v.75l-7.93,12.22,7.93,12.21v1.68l-8.6,13.24,8.6,13.24H.5V.5H558.55V.72h-4.22l4.22,6.5Z"/><path class="cls-2" d="M200.07.92h27.85L308.19,168H280.34Z"/><path class="cls-2" d="M100.51.92H157.4L237.68,168H180.79Z"/><path class="cls-3" d="M145,95.67H78.8V85.44H93.63v-12H81V63.34h12.6V50.66h10.94V63.34H118.9V50.66h11V63.34h13V73.42h-13v12H145Zm-37.23,6.26a92.43,92.43,0,0,1-20.16,16.71,89.87,89.87,0,0,0-8.64-7.35c6.62-3.38,14-9.14,17.64-13.68Zm-3.17-16.49H118.9v-12H104.57Zm21.17,11.81c5.84,4.32,14.77,11,19.3,15.41l-10.51,6c-3.82-4.32-12.31-11.31-18.43-16.21Z"/><path class="cls-3" d="M215,107c0,5.12-.94,8-4,9.65s-7.27,2-13.25,2a34.24,34.24,0,0,0-3.45-10.37c3.38.22,7.56.22,8.78.22s1.66-.51,1.66-1.66V63.34H162.82v55.3H152.67V53.47H215ZM201.49,75.79H165.77V67.08h35.72Zm-22.9,29.31v4.54H169V80.11h29.67v25Zm0-16.49v7.92H189V88.61Z"/><path class="cls-3" d="M288.47,106.18v10.3H223.3v-10.3H250V94.37H230.36V84.29H250V73.63H226.25V63.41h26.86A99.72,99.72,0,0,0,243.46,56l8.71-6.12c4.61,2.81,11,7.27,14.26,10.66l-4,2.88h22.47V73.63H261.61V84.29h19.66V94.37H261.61v11.81Z"/><path class="cls-3" d="M308.62,100.42c-.65,6.91-3.17,13.9-9.07,18.36a30.54,30.54,0,0,0-6.05-6.55c4.1-2.59,5.55-7.28,6-11.81h-4.75V92.07h5V87.46h-5.83V79.1h2.74a38.49,38.49,0,0,0-1.52-10.44l5.26-1.44h-6.12V58.87h6c-.65-1.8-1.37-3.74-2.09-5.33l8.64-2.45a74.14,74.14,0,0,1,3.31,7.78h5.19v8.35h-5.4l4.39.87c-1.08,3.81-2.16,7.77-3.17,11h4.18v8.36h-6.48v4.61h5v8.35Zm-6.84-33.2a37.76,37.76,0,0,1,1.8,10.8l-3.74,1.08h4.46a91.4,91.4,0,0,0,2.31-11.88Zm35.14-1.36s-.07,2.8-.07,3.81c-.36,30.24-.65,41.05-2.45,44a6.22,6.22,0,0,1-4.54,3.53,27,27,0,0,1-6.26.43,24.4,24.4,0,0,0-2-7.92,53,53,0,0,1-4.1,8.93,53.85,53.85,0,0,0-6.62-5.84c5.83-9,8-22.32,8.64-38h-2.31V65.86h2.52c.07-5,0-10.23-.07-15.63h7.85c0,5.4,0,10.66-.14,15.63Zm-9.79,8.92c-.58,13.33-1.95,24.92-5.33,34.5a31.72,31.72,0,0,0,3.38.14,1.86,1.86,0,0,0,1.88-1.3c1-1.87,1.29-9.86,1.58-33.34ZM355.5,87.46v5.9h5.4v8.35h-5.4v16.78h-9.29V101.71H341.1V93.36h5.11v-5.9h-6.55V79.1h3.09a37.65,37.65,0,0,0-1.51-10.65l4.47-1.23h-5.77V58.87h5.55c-.72-1.94-1.59-4-2.38-5.69l8.5-2.59a70.94,70.94,0,0,1,3.67,8.28H361v8.35h-4.89l4.39.87c-.94,3.81-1.8,7.77-2.52,11h4v8.36ZM348,67.22a39.12,39.12,0,0,1,1.73,10.59l-4.47,1.29H351c.65-3.45,1.44-8.2,1.73-11.88Z"/><polygon class="cls-4" points="514.39 140.08 459.6 102.37 404.81 140.08 442.51 85.29 404.81 30.49 459.6 68.2 514.39 30.49 476.68 85.29 514.39 140.08"/></g></g></svg>