<svg xmlns="http://www.w3.org/2000/svg" viewBox="0 0 559.46 168.53"><defs><style>.cls-1{fill:#76bf6d;stroke:#000;stroke-miterlimit:10;}.cls-2,.cls-4{fill:#fff;}.cls-2{opacity:0.3;isolation:isolate;}.cls-3{fill:#313131;}.cls-4{opacity:0.5;}</style></defs><title>共同主辦_1</title><g id="圖層_2" data-name="圖層 2"><g id="圖層_1-2" data-name="圖層 1"><path class="cls-1" d="M.91,7.83,9.62,21.24.91,34.65v.65L9.6,48.69,1.07,61.84,9.34,74.58l-8.42,13V88l8.66,13.33L.92,114.69v.75l7.93,12.22L.92,139.87v1.68l8.6,13.24L.92,168H559V.5H.91V.72H5.13L.91,7.22Z"/><path class="cls-2" d="M200.48.92h27.85L308.6,168H280.75Z"/><path class="cls-2" d="M100.93.92h56.89L238.09,168H181.2Z"/><path class="cls-3" d="M145.38,95.67H79.21V85.44H94v-12H81.44V63.34H94V50.66H105V63.34h14.33V50.66h11V63.34h13V73.42h-13v12h15Zm-37.23,6.26A92.43,92.43,0,0,1,88,118.64a89.87,89.87,0,0,0-8.64-7.35c6.63-3.38,14-9.14,17.64-13.68ZM105,85.44h14.33v-12H105Zm21.17,11.81c5.83,4.32,14.76,11,19.29,15.41l-10.51,6c-3.81-4.32-12.31-11.31-18.43-16.21Z"/><path class="cls-3" d="M215.44,107c0,5.12-.94,8-4,9.65s-7.28,2-13.25,2a34.54,34.54,0,0,0-3.46-10.37c3.38.22,7.56.22,8.78.22s1.66-.51,1.66-1.66V63.34H163.23v55.3H153.08V53.47h62.36ZM201.9,75.79H166.19V67.08H201.9ZM179,105.1v4.54h-9.57V80.11h29.66v25Zm0-16.49v7.92h10.44V88.61Z"/><path class="cls-3" d="M288.88,106.18v10.3H223.71v-10.3h26.72V94.37H230.77V84.29h19.66V73.63H226.66V63.41h26.86A100.84,100.84,0,0,0,243.88,56l8.71-6.12c4.61,2.81,11,7.27,14.25,10.66l-4,2.88h22.47V73.63H262V84.29h19.66V94.37H262v11.81Z"/><path class="cls-3" d="M309,100.42c-.65,6.91-3.16,13.9-9.07,18.36a30.29,30.29,0,0,0-6-6.55c4.11-2.59,5.55-7.28,6-11.81h-4.75V92.07h5V87.46h-5.84V79.1H297a38.86,38.86,0,0,0-1.51-10.44l5.25-1.44h-6.12V58.87h6.05c-.65-1.8-1.37-3.74-2.09-5.33l8.64-2.45a76.38,76.38,0,0,1,3.32,7.78h5.18v8.35h-5.4l4.39.87c-1.08,3.81-2.16,7.77-3.17,11h4.18v8.36h-6.48v4.61h5v8.35Zm-6.84-33.2A37.41,37.41,0,0,1,304,78l-3.74,1.08h4.46A89.76,89.76,0,0,0,307,67.22Zm35.14-1.36s-.07,2.8-.07,3.81c-.36,30.24-.65,41.05-2.45,44a6.2,6.2,0,0,1-4.53,3.53,27.12,27.12,0,0,1-6.27.43,24.37,24.37,0,0,0-1.94-7.92,53.81,53.81,0,0,1-4.11,8.93,53.85,53.85,0,0,0-6.62-5.84c5.83-9,8-22.32,8.64-38h-2.31V65.86h2.53c.07-5,0-10.23-.08-15.63H328c0,5.4,0,10.66-.14,15.63Zm-9.79,8.92c-.58,13.33-1.94,24.92-5.33,34.5a31.8,31.8,0,0,0,3.39.14c.86,0,1.36-.29,1.87-1.3,1-1.87,1.29-9.86,1.58-33.34Zm28.37,12.68v5.9h5.4v8.35h-5.4v16.78h-9.29V101.71h-5.11V93.36h5.11v-5.9h-6.55V79.1h3.09a37.3,37.3,0,0,0-1.51-10.65l4.47-1.23h-5.76V58.87h5.54c-.72-1.94-1.58-4-2.37-5.69L352,50.59a69.3,69.3,0,0,1,3.67,8.28h5.76v8.35h-4.89l4.39.87c-.94,3.81-1.8,7.77-2.52,11h4v8.36Zm-7.49-20.24a39.12,39.12,0,0,1,1.73,10.59l-4.46,1.29h5.76c.64-3.45,1.43-8.2,1.72-11.88Z"/><polygon class="cls-4" points="514.8 140.08 460.01 102.37 405.22 140.08 442.93 85.29 405.22 30.49 460.01 68.2 514.8 30.49 477.09 85.29 514.8 140.08"/></g></g></svg>