<svg xmlns="http://www.w3.org/2000/svg" viewBox="0 0 559.46 168.53"><defs><style>.cls-1{fill:#76bf6d;stroke:#000;stroke-miterlimit:10;}.cls-2,.cls-3{fill:#fff;}.cls-2{opacity:0.3;isolation:isolate;}.cls-3{opacity:0.5;}.cls-4{fill:#313131;}</style></defs><title>協辦單位</title><g id="圖層_2" data-name="圖層 2"><g id="圖層_1-2" data-name="圖層 1"><g id="_群組_" data-name="&lt;群組&gt;"><g id="_群組_2" data-name="&lt;群組&gt;"><path id="_路徑_" data-name="&lt;路徑&gt;" class="cls-1" d="M558.55,7.83l-8.71,13.41,8.71,13.41v.65l-8.69,13.39,8.53,13.15-8.27,12.74,8.42,13V88l-8.66,13.33,8.66,13.34v.75l-7.93,12.22,7.93,12.21v1.68l-8.6,13.24,8.6,13.24H.5V.5H558.55V.72h-4.22l4.22,6.5Z"/><path id="_路徑_2" data-name="&lt;路徑&gt;" class="cls-2" d="M200.07.92h27.85L308.19,168H280.34Z"/><path id="_路徑_3" data-name="&lt;路徑&gt;" class="cls-2" d="M100.51.92H157.4L237.68,168H180.79Z"/></g><polygon id="_路徑_4" data-name="&lt;路徑&gt;" class="cls-3" points="514.39 140.08 459.6 102.37 404.81 140.08 442.51 85.29 404.81 30.49 459.6 68.2 514.39 30.49 476.68 85.29 514.39 140.08"/></g><path class="cls-4" d="M147.85,89s0,2.24-.07,3.25c-.36,15.84-.72,22.46-2.3,24.62a6.41,6.41,0,0,1-4.33,2.81,30,30,0,0,1-6.19.43,24.46,24.46,0,0,0-1.94-7.85,28.41,28.41,0,0,1-5.69,7.56,24.37,24.37,0,0,0-5-6.12,8.81,8.81,0,0,1-1.08,3.24,5.67,5.67,0,0,1-4.18,2.74,29.24,29.24,0,0,1-6.12.43,22.26,22.26,0,0,0-1.8-7.56,29.49,29.49,0,0,1-5.61,7.78,24.49,24.49,0,0,0-5.47-6.48c4.24-4.18,6-9.72,6.76-17.07h-4.53V89h5c.07-1.94.14-4,.14-6.26h3.6a33.38,33.38,0,0,0-4.46-6.26v2.16H98V120h-10V78.63H80.6V69.19h7.34V51.62H98V69.19h6.7v6.48c6.41-2.3,10-5.25,12.17-9.14h-9.44V58.32h12c.28-2,.5-4.25.64-6.62h9.73a61.83,61.83,0,0,1-.72,6.62h17s-.14,2.23-.29,3.38C145,71.93,144,76.83,142.16,78.91a8.17,8.17,0,0,1-5.69,2.67,57.11,57.11,0,0,1-8.49.29,20.17,20.17,0,0,0-2.59-8.64c2.66.21,5.25.28,6.55.28a2.79,2.79,0,0,0,2.3-.72c.65-.64,1.23-2.52,1.66-6.26H127c-2.66,7.06-7.56,12.24-16.85,16.2h4c-.07,2.16-.07,4.25-.21,6.26h9.5s0,2.16-.07,3.17c-.14,9.94-.29,16.28-.79,20.16,3.67-4,5.33-9,6-15.55h-4V89h4.61c.07-2.08.15-4.32.15-6.62h8.92c-.07,2.3-.07,4.54-.21,6.62Zm-34.49,7.78c-.72,5.91-1.87,11-4,15.34,1.37.14,2.3.21,3.09.21a1.71,1.71,0,0,0,1.66-.93c.58-.94.86-4.68,1.08-14.62Zm24,0a46,46,0,0,1-4.18,15.12,25.27,25.27,0,0,0,3.1.15,1.89,1.89,0,0,0,1.73-.94c.57-.94.93-4.61,1.15-14.33Z"/><path class="cls-4" d="M167.65,101.81c-.65,6.91-3.17,13.9-9.08,18.36a30.49,30.49,0,0,0-6-6.55c4.1-2.59,5.54-7.27,6-11.81h-4.75V93.46h5V88.85h-5.83V80.5h2.73a38.41,38.41,0,0,0-1.51-10.44l5.26-1.44h-6.12V60.26h6c-.64-1.8-1.36-3.74-2.08-5.32l8.64-2.45a76.15,76.15,0,0,1,3.31,7.77h5.18v8.36h-5.4l4.4.86c-1.08,3.82-2.16,7.78-3.17,11h4.17v8.35h-6.48v4.61h5v8.35Zm-6.84-33.19a37.7,37.7,0,0,1,1.8,10.8l-3.75,1.08h4.47a92,92,0,0,0,2.3-11.88Zm35.13-1.37s-.07,2.81-.07,3.82c-.36,30.24-.64,41-2.44,44a6.21,6.21,0,0,1-4.54,3.53,27.12,27.12,0,0,1-6.27.43,24.44,24.44,0,0,0-1.94-7.92,53.78,53.78,0,0,1-4.1,8.93A53.85,53.85,0,0,0,170,114.2c5.83-9,8-22.33,8.64-38h-2.3V67.25h2.52c.07-5,0-10.23-.07-15.63h7.84c0,5.4,0,10.66-.14,15.63Zm-9.79,8.93c-.57,13.32-1.94,24.91-5.33,34.49a31.8,31.8,0,0,0,3.39.14,1.86,1.86,0,0,0,1.87-1.29c1-1.88,1.3-9.87,1.58-33.34Zm28.37,12.67v5.91h5.4v8.35h-5.4v16.78h-9.29V103.11h-5.11V94.76h5.11V88.85h-6.55V80.5h3.1a38,38,0,0,0-1.51-10.66l4.46-1.22H199V60.26h5.54c-.72-1.94-1.58-4-2.37-5.68l8.49-2.6a71,71,0,0,1,3.68,8.28h5.76v8.36h-4.9l4.39.86c-.93,3.82-1.8,7.78-2.52,11h4v8.35ZM207,68.62a39,39,0,0,1,1.73,10.58l-4.46,1.3h5.76c.65-3.46,1.44-8.21,1.73-11.88Z"/><path class="cls-4" d="M291.35,111.46H263.91V120H253v-8.57H226.47v-8.93H253V99.8H233V71.57h52.21V99.8H263.91v2.73h27.44ZM257.14,69.19H230.07V54.43h27.07Zm-9.79-8.71h-8.06v2.66h8.06ZM243.25,82H253V79.49h-9.79ZM253,91.87V89.35h-9.79v2.52Zm34.85-22.68H260.6V54.43h27.29Zm-13.46,10.3H263.91V82h10.52Zm0,9.86H263.91v2.52h10.52Zm3.67-28.87h-8.28v2.66h8.28Z"/><path class="cls-4" d="M322.16,55a115.6,115.6,0,0,1-6.34,14V120H305.24V85.47c-1,1.29-2.09,2.52-3.1,3.6a70.08,70.08,0,0,0-5.47-11c6.19-6.27,12.17-16.2,15.62-26.14Zm41.55,52.13v10.08H318.27V107.14h25.06a221.15,221.15,0,0,0,5.33-32.76L359.6,76a297.39,297.39,0,0,1-6.69,31.11ZM337,63.22c-.64-3-2-7.28-3.09-10.52l10-2.44a109.87,109.87,0,0,1,3.67,10.94l-7.27,2h21.24V73.37h-40.9V63.22Zm-8.49,42.7c-.51-7.49-2.16-19.81-3.89-29.31L334,74.45A288.79,288.79,0,0,1,338.79,103Z"/></g></g></svg>