<svg xmlns="http://www.w3.org/2000/svg" viewBox="0 0 73.86 89.54"><defs><style>.cls-1{fill:#bfb8b2;}</style></defs><title>大地遊戲</title><g id="圖層_2" data-name="圖層 2"><g id="圖層_1-2" data-name="圖層 1"><path class="cls-1" d="M53.71.09,2.93,11.27A3.73,3.73,0,0,0,.09,15.72L15.7,86.6a3.74,3.74,0,0,0,4.45,2.85L70.93,78.27a3.74,3.74,0,0,0,2.84-4.46L58.16,2.93A3.73,3.73,0,0,0,53.71.09ZM51.93,32.43a17.13,17.13,0,0,1-.21,8.19v0l0,.06A17,17,0,0,1,51,42.79L42.09,68.24,23.55,49.06c-.23-.2-.45-.4-.67-.62a17.31,17.31,0,1,1,29.05-16h0Z"/><path class="cls-1" d="M44,34.12a9.23,9.23,0,1,1-11-7A9.23,9.23,0,0,1,44,34.12Z"/></g></g></svg>