<svg xmlns="http://www.w3.org/2000/svg" viewBox="0 0 559.46 168.53"><defs><style>.cls-1{fill:#76bf6d;stroke:#000;stroke-miterlimit:10;}.cls-2,.cls-4{fill:#fff;}.cls-2{opacity:0.3;isolation:isolate;}.cls-3{fill:#313131;}.cls-4{opacity:0.5;}</style></defs><title>主辦單位_1</title><g id="圖層_2" data-name="圖層 2"><g id="圖層_1-2" data-name="圖層 1"><path class="cls-1" d="M.91,7.83,9.62,21.24.91,34.65v.65L9.6,48.69,1.07,61.84,9.34,74.58l-8.42,13V88l8.66,13.33L.92,114.69v.75l7.93,12.22L.92,139.87v1.68l8.6,13.24L.92,168H559V.5H.91V.72H5.13L.91,7.22Z"/><path class="cls-2" d="M200.48.92h27.85L308.6,168H280.75Z"/><path class="cls-2" d="M100.93.92h56.89L238.09,168H181.2Z"/><path class="cls-3" d="M144.88,106.18v10.3H79.71v-10.3h26.72V94.37H86.77V84.29h19.66V73.63H82.66V63.41h26.86A99.72,99.72,0,0,0,99.87,56l8.72-6.12c4.6,2.81,11,7.27,14.25,10.66l-4,2.88h22.47V73.63H118V84.29h19.66V94.37H118v11.81Z"/><path class="cls-3" d="M165,100.42c-.65,6.91-3.16,13.9-9.07,18.36a30.29,30.29,0,0,0-6.05-6.55c4.11-2.59,5.55-7.28,6-11.81h-4.75V92.07h5V87.46h-5.83V79.1H153a38.86,38.86,0,0,0-1.51-10.44l5.25-1.44h-6.12V58.87h6.05c-.65-1.8-1.37-3.74-2.09-5.33l8.64-2.45a74.14,74.14,0,0,1,3.31,7.78h5.19v8.35h-5.4l4.39.87c-1.08,3.81-2.16,7.77-3.17,11h4.18v8.36h-6.48v4.61h5v8.35Zm-6.84-33.2A37.76,37.76,0,0,1,160,78l-3.74,1.08h4.46A91.4,91.4,0,0,0,163,67.22Zm35.14-1.36s-.07,2.8-.07,3.81c-.36,30.24-.65,41.05-2.45,44a6.2,6.2,0,0,1-4.54,3.53,27,27,0,0,1-6.26.43,24.37,24.37,0,0,0-1.94-7.92,53.81,53.81,0,0,1-4.11,8.93,53.85,53.85,0,0,0-6.62-5.84c5.83-9,8-22.32,8.64-38h-2.31V65.86h2.52c.08-5,0-10.23-.07-15.63H184c0,5.4,0,10.66-.14,15.63Zm-9.79,8.92c-.58,13.33-1.95,24.92-5.33,34.5a31.72,31.72,0,0,0,3.38.14,1.86,1.86,0,0,0,1.88-1.3c1-1.87,1.29-9.86,1.58-33.34Zm28.37,12.68v5.9h5.4v8.35h-5.4v16.78h-9.29V101.71h-5.11V93.36h5.11v-5.9h-6.55V79.1h3.09a37.3,37.3,0,0,0-1.51-10.65l4.47-1.23h-5.76V58.87h5.54c-.72-1.94-1.58-4-2.38-5.69l8.5-2.59a69.3,69.3,0,0,1,3.67,8.28h5.76v8.35h-4.89l4.39.87c-.94,3.81-1.8,7.77-2.52,11h4v8.36Zm-7.49-20.24a39.12,39.12,0,0,1,1.73,10.59l-4.47,1.29h5.76c.65-3.45,1.44-8.2,1.73-11.88Z"/><path class="cls-3" d="M288.73,110.07H261.3v8.57H250.43v-8.57H223.86v-8.93h26.57V98.4h-20V70.18h52.2V98.4H261.3v2.74h27.43ZM254.53,67.8H227.46V53h27.07Zm-9.79-8.71h-8.07v2.66h8.07Zm-4.11,21.53h9.8V78.1h-9.8Zm9.8,9.86V88h-9.8v2.52ZM285.28,67.8H258V53h27.29ZM271.81,78.1H261.3v2.52h10.51Zm0,9.86H261.3v2.52h10.51Zm3.67-28.87H267.2v2.66h8.28Z"/><path class="cls-3" d="M319.55,53.61a115.72,115.72,0,0,1-6.34,14v50.9H302.62V84.07c-1,1.3-2.08,2.52-3.09,3.6a72.22,72.22,0,0,0-5.47-11c6.19-6.27,12.16-16.21,15.62-26.14Zm41.54,52.14v10.08H315.66V105.75h25.06A221.08,221.08,0,0,0,346,73L357,74.64a294.74,294.74,0,0,1-6.7,31.11ZM334.38,61.82c-.65-3-2-7.27-3.1-10.51l10-2.45a107.49,107.49,0,0,1,3.67,11l-7.27,2h21.24V72H318V61.82Zm-8.5,42.7c-.5-7.49-2.16-19.8-3.89-29.3l9.44-2.16c2,9.21,4,21.24,4.75,28.51Z"/><polygon class="cls-4" points="509.6 140.08 454.81 102.37 400.02 140.08 437.73 85.29 400.02 30.49 454.81 68.2 509.6 30.49 471.89 85.29 509.6 140.08"/></g></g></svg>