<svg xmlns="http://www.w3.org/2000/svg" viewBox="0 0 559.46 168.53"><defs><style>.cls-1{fill:#76bf6d;stroke:#000;stroke-miterlimit:10;}.cls-2,.cls-4{fill:#fff;}.cls-2{opacity:0.3;isolation:isolate;}.cls-3{fill:#313131;}.cls-4{opacity:0.5;}</style></defs><title>主辦單位_1</title><g id="圖層_2" data-name="圖層 2"><g id="圖層_1-2" data-name="圖層 1"><path class="cls-1" d="M558.55,7.83l-8.71,13.41,8.71,13.41v.65l-8.69,13.39,8.53,13.15-8.27,12.74,8.42,13V88l-8.66,13.33,8.66,13.34v.75l-7.93,12.22,7.93,12.21v1.68l-8.6,13.24,8.6,13.24H.5V.5H558.55V.72h-4.22l4.22,6.5Z"/><path class="cls-2" d="M200.07.92h27.85L308.19,168H280.34Z"/><path class="cls-2" d="M100.51.92H157.4L237.68,168H180.79Z"/><path class="cls-3" d="M144.47,106.18v10.3H79.3v-10.3H106V94.37H86.36V84.29H106V73.63H82.25V63.41h26.86A99.72,99.72,0,0,0,99.46,56l8.71-6.12c4.61,2.81,11,7.27,14.26,10.66l-4,2.88h22.47V73.63H117.61V84.29h19.65V94.37H117.61v11.81Z"/><path class="cls-3" d="M164.62,100.42c-.65,6.91-3.17,13.9-9.07,18.36a30.54,30.54,0,0,0-6.05-6.55c4.1-2.59,5.54-7.28,6-11.81h-4.76V92.07h5V87.46h-5.83V79.1h2.74a38.49,38.49,0,0,0-1.52-10.44l5.26-1.44h-6.12V58.87h6.05c-.65-1.8-1.37-3.74-2.09-5.33l8.64-2.45a74.14,74.14,0,0,1,3.31,7.78h5.19v8.35h-5.4l4.39.87c-1.08,3.81-2.16,7.77-3.17,11h4.18v8.36h-6.48v4.61h5v8.35Zm-6.84-33.2a37.76,37.76,0,0,1,1.8,10.8l-3.74,1.08h4.46a89.75,89.75,0,0,0,2.3-11.88Zm35.14-1.36s-.07,2.8-.07,3.81c-.36,30.24-.65,41.05-2.45,44a6.22,6.22,0,0,1-4.54,3.53,27,27,0,0,1-6.26.43,24.65,24.65,0,0,0-1.95-7.92,53.78,53.78,0,0,1-4.1,8.93,53.25,53.25,0,0,0-6.63-5.84c5.84-9,8-22.32,8.65-38h-2.31V65.86h2.52c.07-5,0-10.23-.07-15.63h7.85c0,5.4,0,10.66-.14,15.63Zm-9.79,8.92c-.58,13.33-1.95,24.92-5.33,34.5a31.72,31.72,0,0,0,3.38.14,1.85,1.85,0,0,0,1.87-1.3c1-1.87,1.3-9.86,1.59-33.34ZM211.5,87.46v5.9h5.4v8.35h-5.4v16.78h-9.29V101.71H197.1V93.36h5.11v-5.9h-6.55V79.1h3.09a37.65,37.65,0,0,0-1.51-10.65l4.46-1.23h-5.76V58.87h5.55c-.72-1.94-1.59-4-2.38-5.69l8.5-2.59a72.65,72.65,0,0,1,3.67,8.28H217v8.35h-4.89l4.39.87c-.94,3.81-1.8,7.77-2.52,11h4v8.36ZM204,67.22a39.12,39.12,0,0,1,1.73,10.59l-4.47,1.29H207c.65-3.45,1.44-8.2,1.73-11.88Z"/><path class="cls-3" d="M288.32,110.07H260.89v8.57H250v-8.57H223.44v-8.93H250V98.4H230V70.18h52.2V98.4H260.89v2.74h27.43ZM254.12,67.8H227V53h27.08Zm-9.79-8.71h-8.07v2.66h8.07Zm-4.11,21.53H250V78.1h-9.79ZM250,90.48V88h-9.79v2.52ZM284.87,67.8H257.58V53h27.29ZM271.4,78.1H260.89v2.52H271.4Zm0,9.86H260.89v2.52H271.4Zm3.67-28.87h-8.28v2.66h8.28Z"/><path class="cls-3" d="M319.13,53.61a114.12,114.12,0,0,1-6.33,14v50.9H302.21V84.07c-1,1.3-2.09,2.52-3.09,3.6a71.39,71.39,0,0,0-5.48-11c6.2-6.27,12.17-16.21,15.63-26.14Zm41.55,52.14v10.08H315.25V105.75H340.3A219.77,219.77,0,0,0,345.63,73l10.95,1.66a294.74,294.74,0,0,1-6.7,31.11ZM334,61.82c-.65-3-2-7.27-3.1-10.51l10-2.45a107.49,107.49,0,0,1,3.67,11l-7.27,2h21.24V72h-40.9V61.82Zm-8.5,42.7c-.5-7.49-2.16-19.8-3.89-29.3L331,73.06a288.56,288.56,0,0,1,4.76,28.51Z"/><polygon class="cls-4" points="509.19 140.08 454.4 102.37 399.61 140.08 437.31 85.29 399.61 30.49 454.4 68.2 509.19 30.49 471.48 85.29 509.19 140.08"/></g></g></svg>