<svg xmlns="http://www.w3.org/2000/svg" xmlns:xlink="http://www.w3.org/1999/xlink" viewBox="0 0 559.46 176.62"><defs><style>.cls-1{fill:none;}.cls-2{clip-path:url(#clip-path);}.cls-3{fill:#8dc1d8;stroke:#000;stroke-miterlimit:10;}.cls-4,.cls-6{fill:#fff;}.cls-4{opacity:0.3;isolation:isolate;}.cls-5{fill:#313131;}.cls-6{opacity:0.5;}</style><clipPath id="clip-path"><path class="cls-1" d="M558.55,7.83l-8.71,13.41,8.71,13.41v.65l-8.69,13.39,8.53,13.15-8.27,12.74,8.42,13V88l-8.66,13.33,8.66,13.34v.75l-7.93,12.22,7.93,12.21v1.68l-8.6,13.24,8.6,13.24H.5V.5H558.55V.72h-4.22l4.22,6.5Z"/></clipPath></defs><title>新芽級_1</title><g id="圖層_2" data-name="圖層 2"><g id="圖層_1-2" data-name="圖層 1"><g class="cls-2"><path class="cls-3" d="M558.55,7.83l-8.71,13.41,8.71,13.41v.65l-8.69,13.39,8.53,13.15-8.27,12.74,8.42,13V88l-8.66,13.33,8.66,13.34v.75l-7.93,12.22,7.93,12.21v1.68l-8.6,13.24,8.6,13.24H.5V.5H558.55V.72h-4.22l4.22,6.5Z"/><path class="cls-4" d="M200.07.92h27.85L308.19,168H280.34Z"/><path class="cls-4" d="M100.51.92H157.4L237.68,168H180.79Z"/><path class="cls-5" d="M116.72,98.4a93.25,93.25,0,0,1-7.27,15,52.42,52.42,0,0,0-6.77-4.68A54.16,54.16,0,0,0,108.8,96Zm10.8-3.81V118H117.37V94.59H104.48V85.87h12.89V81.48H104V73h6.12a61.69,61.69,0,0,0-1.66-6l5.62-1.37h-8.93V57.14h11.38c-.51-1.8-1.08-3.67-1.66-5.25l10.51-2.52c.94,2.37,2.09,5.32,2.88,7.77h9.65v8.43h-8.06l5.47,1c-1.08,2.37-2,4.53-2.88,6.4H139v8.5H127.52v4.39H137.6v8.72ZM117,65.57a44.94,44.94,0,0,1,1.8,6L113.63,73h9.5a71,71,0,0,0,2.52-7.41Zm54.65,17.85h-6v34.86H155.46V83.42h-4.9c0,10.73-.93,26-6.91,35.07a38.88,38.88,0,0,0-8.06-6.12A27,27,0,0,0,138.4,106l-4.9,3.1A91.28,91.28,0,0,0,128,98.76L134.72,95c1.59,2.3,3.32,5.11,4.61,7.48,1.37-6.33,1.51-13.24,1.51-19.08V57.07c7.85-1.51,16.28-4,21.61-6.55l7.92,7.7a111.11,111.11,0,0,1-19.81,5.55v10h21.1Z"/><path class="cls-5" d="M226.67,87h15.77V96.6H226.67v11c0,5.18-1.08,7.78-4.68,9.29s-8.35,1.65-14.55,1.65a40.18,40.18,0,0,0-3.67-9.93c4,.21,9.15.21,10.51.21s1.88-.36,1.88-1.44V97.61c-8.36,8.28-21.53,15.77-33.27,19.66a41.24,41.24,0,0,0-6.7-9.07,77.77,77.77,0,0,0,26.14-11.6H181.09a149.15,149.15,0,0,0,4-16.06l11.09,1.16c-.43,1.72-1,3.52-1.51,5.33h21.46V79.39H181.31V70h56.74v9.36H226.67Zm-37-23H176.77v-9h12.89V50.23H200v4.82H208v9H200v4.69H189.66ZM242.44,55v9H228.9v4.76H218.53V64h-7.92V55h7.92V50.23H228.9V55Z"/><path class="cls-5" d="M250.79,79.75a80.94,80.94,0,0,0-3.24-9.14c1.58-.43,2.8-1.66,4.24-3.75a79.06,79.06,0,0,0,8.07-17.13l9.57,3.88a93.52,93.52,0,0,1-9,15.92l3.68-.22a85.38,85.38,0,0,0,5.11-9.43l8.57,5.54a110.41,110.41,0,0,1-10.15,14.76L273.47,78a52.27,52.27,0,0,1,5.11,14.26l-7.49,3a30.48,30.48,0,0,0-.5-3C256,94.8,253.16,95.59,251.36,96.6a85.42,85.42,0,0,0-3.24-9.22c2.16-.5,3.67-2,6.12-4.68.79-.79,2.16-2.44,3.82-4.53-4.61.57-6.19,1-7.27,1.51Zm7.34,20a75.72,75.72,0,0,1-2.88,17.71,52.46,52.46,0,0,0-7.7-2.66c1.65-4.1,2.3-10.51,2.59-16.35Zm7.56-1.87a125,125,0,0,1,1.87,14.4l-7.41,1.94a125.08,125.08,0,0,0-1.44-14.61Zm2.45-13.4c-.36-1.15-.87-2.23-1.3-3.31-1.15,1.37-2.3,2.74-3.45,4ZM315,75.07c-1.66,11.09-4.76,20.31-9.15,27.72A32.49,32.49,0,0,0,316,109.56a37.38,37.38,0,0,0-6.91,8.72,35.61,35.61,0,0,1-9.43-7.06,50.06,50.06,0,0,1-9,7.56,39.11,39.11,0,0,0-5.9-7.27,39.26,39.26,0,0,1-3.38,6.91,55.56,55.56,0,0,0-9-6.62,29.58,29.58,0,0,0,2.38-4l-5.26,1.88a88.77,88.77,0,0,0-3.16-11.6l6.84-2.3c1.08,2.74,2.16,6.19,2.95,8.93,4.18-10.59,5.11-25.35,5.11-41.91h-5.4V53h24l1.58-.36,7.2.86C307.81,60,306.59,67,305.37,73.2h1.22l1.8-.36Zm-21.68,27.87a54.2,54.2,0,0,1-4.25-8.64,81.26,81.26,0,0,1-3.89,15.91A33.52,33.52,0,0,0,293.34,102.94Zm-2.09-40.11c-.07,3.53-.14,7-.28,10.37h4.67c.65-3.31,1.23-7,1.81-10.37Zm3,19.59A54.43,54.43,0,0,0,299,93.94a53.72,53.72,0,0,0,4.25-11.52Z"/><path class="cls-6" d="M469.49,62.16c25.09-19.18,54.9-12.1,54.9-12.1s-5,35.64-30.07,54.83-60.79,14.65-60.79,14.65a308.34,308.34,0,0,0,15.54-27.07C453.61,83.54,460.24,69.24,469.49,62.16Z"/><path class="cls-6" d="M409.27,91.2c-11.72-9-25.64-5.66-25.64-5.66s2.33,16.65,14,25.6S426.06,118,426.06,118s-3.62-5.5-7.26-12.64C416.68,101.17,413.59,94.5,409.27,91.2Z"/><path class="cls-6" d="M412.12,176.16c3.42,0,6.85.15,10.27.38-3.05-18.24-2.45-37.23,6.92-53.53-16.4,13.21-24.39,33.43-28.52,53.61C404.56,176.35,408.33,176.16,412.12,176.16Z"/></g></g></g></svg>