<svg xmlns="http://www.w3.org/2000/svg" xmlns:xlink="http://www.w3.org/1999/xlink" viewBox="0 0 559.46 176.62"><defs><style>.cls-1{fill:none;}.cls-2{clip-path:url(#clip-path);}.cls-3{fill:#8dc1d8;stroke:#000;stroke-miterlimit:10;}.cls-4,.cls-6{fill:#fff;}.cls-4{opacity:0.3;isolation:isolate;}.cls-5{fill:#313131;}.cls-6{opacity:0.5;}</style><clipPath id="clip-path"><path class="cls-1" d="M.91,7.83,9.62,21.24.91,34.65v.65L9.6,48.69,1.07,61.84,9.34,74.58l-8.42,13V88l8.66,13.33L.92,114.69v.75l7.93,12.22L.92,139.87v1.68l8.6,13.24L.92,168H559V.5H.91V.72H5.13L.91,7.22Z"/></clipPath></defs><title>新芽級_1</title><g id="圖層_2" data-name="圖層 2"><g id="圖層_1-2" data-name="圖層 1"><g class="cls-2"><path class="cls-3" d="M.91,7.83,9.62,21.24.91,34.65v.65L9.6,48.69,1.07,61.84,9.34,74.58l-8.42,13V88l8.66,13.33L.92,114.69v.75l7.93,12.22L.92,139.87v1.68l8.6,13.24L.92,168H559V.5H.91V.72H5.13L.91,7.22Z"/><path class="cls-4" d="M200.48.92h27.85L308.6,168H280.75Z"/><path class="cls-4" d="M100.93.92h56.89L238.09,168H181.2Z"/><path class="cls-5" d="M117.13,98.4a93.25,93.25,0,0,1-7.27,15,52.42,52.42,0,0,0-6.77-4.68A54.16,54.16,0,0,0,109.21,96Zm10.8-3.81V118H117.78V94.59H104.89V85.87h12.89V81.48H104.39V73h6.12a61.69,61.69,0,0,0-1.66-6l5.62-1.37h-8.93V57.14h11.38c-.51-1.8-1.08-3.67-1.66-5.25l10.51-2.52c.94,2.37,2.09,5.32,2.89,7.77h9.64v8.43h-8.06l5.47,1c-1.08,2.37-2,4.53-2.88,6.4h6.63v8.5H127.93v4.39H138v8.72Zm-10.51-29a44.94,44.94,0,0,1,1.8,6L114,73h9.5a66.66,66.66,0,0,0,2.52-7.41Zm54.66,17.85H166v34.86H155.87V83.42H151c0,10.73-.94,26-6.92,35.07a38.88,38.88,0,0,0-8.06-6.12,27,27,0,0,0,2.81-6.41l-4.9,3.1a91.28,91.28,0,0,0-5.47-10.3l6.7-3.81c1.58,2.3,3.31,5.11,4.6,7.48,1.37-6.33,1.52-13.24,1.52-19.08V57.07c7.84-1.51,16.27-4,21.6-6.55l7.92,7.7A111,111,0,0,1,151,63.77v10h21.1Z"/><path class="cls-5" d="M227.08,87h15.77V96.6H227.08v11c0,5.18-1.08,7.78-4.68,9.29s-8.35,1.65-14.54,1.65a40.62,40.62,0,0,0-3.68-9.93c4,.21,9.15.21,10.52.21s1.87-.36,1.87-1.44V97.61c-8.35,8.28-21.53,15.77-33.27,19.66a40.92,40.92,0,0,0-6.7-9.07,77.68,77.68,0,0,0,26.14-11.6H181.5a146.83,146.83,0,0,0,4-16.06l11.09,1.16c-.43,1.72-1,3.52-1.51,5.33h21.46V79.39H181.72V70h56.74v9.36H227.08Zm-37-23H177.18v-9h12.89V50.23h10.37v4.82h7.92v9h-7.92v4.69H190.07ZM242.85,55v9H229.31v4.76H218.94V64H211V55h7.92V50.23h10.37V55Z"/><path class="cls-5" d="M251.2,79.75A80.94,80.94,0,0,0,248,70.61c1.58-.43,2.8-1.66,4.25-3.75a79.16,79.16,0,0,0,8.06-17.13l9.58,3.88a94.89,94.89,0,0,1-9,15.92l3.67-.22a85.38,85.38,0,0,0,5.11-9.43l8.57,5.54a110.41,110.41,0,0,1-10.15,14.76L273.88,78c2.38,4.54,4.54,10.37,5.11,14.26l-7.49,3a27.8,27.8,0,0,0-.5-3c-14.55,2.59-17.43,3.38-19.23,4.39a85.42,85.42,0,0,0-3.24-9.22c2.16-.5,3.68-2,6.12-4.68.8-.79,2.16-2.44,3.82-4.53-4.61.57-6.19,1-7.27,1.51Zm7.34,20a75.72,75.72,0,0,1-2.88,17.71,52.06,52.06,0,0,0-7.7-2.66c1.65-4.1,2.3-10.51,2.59-16.35Zm7.56-1.87A125,125,0,0,1,268,112.3l-7.41,1.94a123,123,0,0,0-1.44-14.61Zm2.45-13.4c-.36-1.15-.86-2.23-1.29-3.31-1.16,1.37-2.31,2.74-3.46,4Zm46.88-9.43c-1.66,11.09-4.76,20.31-9.15,27.72a32.49,32.49,0,0,0,10.08,6.77,37.38,37.38,0,0,0-6.91,8.72,35.61,35.61,0,0,1-9.43-7.06,50.34,50.34,0,0,1-9,7.56,39.58,39.58,0,0,0-5.91-7.27,38.58,38.58,0,0,1-3.38,6.91,55.9,55.9,0,0,0-9-6.62,30.62,30.62,0,0,0,2.37-4l-5.25,1.88a90.51,90.51,0,0,0-3.17-11.6l6.84-2.3c1.08,2.74,2.16,6.19,3,8.93,4.18-10.59,5.11-25.35,5.11-41.91h-5.4V53h24l1.59-.36,7.2.86C308.23,60,307,67,305.78,73.2H307l1.8-.36Zm-21.68,27.87a54.16,54.16,0,0,1-4.24-8.64,82.71,82.71,0,0,1-3.89,15.91A33.67,33.67,0,0,0,293.75,102.94Zm-2.08-40.11c-.08,3.53-.15,7-.29,10.37h4.68c.65-3.31,1.22-7,1.8-10.37Zm2.95,19.59a54.43,54.43,0,0,0,4.82,11.52,53.72,53.72,0,0,0,4.25-11.52Z"/><path class="cls-6" d="M469.9,62.16C495,43,524.8,50.06,524.8,50.06s-5,35.64-30.07,54.83-60.79,14.65-60.79,14.65a308.34,308.34,0,0,0,15.54-27.07C454,83.54,460.65,69.24,469.9,62.16Z"/><path class="cls-6" d="M409.68,91.2C398,82.24,384,85.54,384,85.54s2.33,16.65,14,25.6S426.47,118,426.47,118s-3.62-5.5-7.25-12.64C417.09,101.17,414,94.5,409.68,91.2Z"/><path class="cls-6" d="M412.53,176.16c3.43,0,6.85.15,10.27.38-3.05-18.24-2.45-37.23,6.92-53.53-16.4,13.21-24.38,33.43-28.52,53.61C405,176.35,408.75,176.16,412.53,176.16Z"/></g></g></g></svg>