<svg xmlns="http://www.w3.org/2000/svg" xmlns:xlink="http://www.w3.org/1999/xlink" viewBox="0 0 559.46 174.78"><defs><style>.cls-1,.cls-9{fill:none;}.cls-2{clip-path:url(#clip-path);}.cls-3{fill:#bcbcbc;stroke:#000;}.cls-3,.cls-8,.cls-9{stroke-miterlimit:10;}.cls-4,.cls-7,.cls-8{fill:#fff;}.cls-4{opacity:0.3;isolation:isolate;}.cls-5{fill:#313131;}.cls-6{opacity:0.5;}.cls-8{stroke:#bcbcbc;stroke-width:2px;}.cls-9{stroke:#fff;stroke-width:5px;}</style><clipPath id="clip-path"><path class="cls-1" d="M558.55,7.83l-8.71,13.41,8.71,13.41v.65l-8.69,13.39,8.53,13.15-8.27,12.74,8.42,13V88l-8.66,13.33,8.66,13.34v.75l-7.93,12.22,7.93,12.21v1.68l-8.6,13.24,8.6,13.24H.5V.5H558.55V.72h-4.22l4.22,6.5Z"/></clipPath></defs><title>深耕級_1</title><g id="圖層_2" data-name="圖層 2"><g id="圖層_1-2" data-name="圖層 1"><g class="cls-2"><path class="cls-3" d="M558.55,7.83l-8.71,13.41,8.71,13.41v.65l-8.69,13.39,8.53,13.15-8.27,12.74,8.42,13V88l-8.66,13.33,8.66,13.34v.75l-7.93,12.22,7.93,12.21v1.68l-8.6,13.24,8.6,13.24H.5V.5H558.55V.72h-4.22l4.22,6.5Z"/><path class="cls-4" d="M200.07.92h27.85L308.19,168H280.34Z"/><path class="cls-4" d="M100.51.92H157.4L237.68,168H180.79Z"/><path class="cls-5" d="M115,87.39c-2.52-2.6-8.13-6.49-12.09-9.08l6.19-7.13c3.89,2.24,9.65,5.76,12.46,8.21Zm9.15,7c-3.17,7.63-6.7,15.48-10.37,22.68l-9.36-6.41A204.78,204.78,0,0,0,115.86,88Zm-5.69-26.21c-2.45-2.52-8-6.55-11.81-9.29L113.12,52A120.37,120.37,0,0,1,124.93,60V53.18h44.86V68.52h-10V62H134.44v7h-9.51V60.89Zm39.17,27.22a47.25,47.25,0,0,0,14.19,11.09,39.72,39.72,0,0,0-7.06,8.13,50.46,50.46,0,0,1-13-12.45v16.41h-10.3V102.29A45.52,45.52,0,0,1,126.59,115a44.68,44.68,0,0,0-6.92-8.29,40.54,40.54,0,0,0,15.41-11.37h-10.8V86.09h17.14V79.32h10.3v6.77h17.64v9.29Zm-11.3-31.47c-.58,10.23-3,16.06-19.16,18.87a24.82,24.82,0,0,0-4.89-8.07c13.1-1.51,14.25-4.25,14.61-10.8Zm19.37,8.57a22.54,22.54,0,0,0,5-.58c.14,2.38.43,6.41.72,8.64a17.55,17.55,0,0,1-5.55.58H160c-8.79,0-10.87-2.81-10.87-11V63.91h9.21v6.27c0,1.58.22,2.3,1.44,2.3Z"/><path class="cls-5" d="M199,108.41a71.47,71.47,0,0,0-4.18-6.12v16.27H185v-14.4a41.59,41.59,0,0,1-6,9.72,56.26,56.26,0,0,0-4.18-9.57,52.31,52.31,0,0,0,8-13.61h-6.7V81.77H185V78.24h-7.49V69.38H185V65.64c-2.23.29-4.47.5-6.63.65a30.46,30.46,0,0,0-2.66-7.56c3-.36,6.26-.8,9.29-1.3V50.16h9.86v5.11c1.08-.29,2-.65,3-.94l6.91,7.35a76.14,76.14,0,0,1-9.87,2.45v5.25h7.35v8.86h-7.35v3.53h8.5V90.7h-8.5v.5c2.81,2.59,8.5,8.57,9.94,10.15Zm44.86-14h-6.77v24.19h-10V94.37h-5.69c-1.36,9.58-4.82,18.79-13.1,24.63a47.54,47.54,0,0,0-8.14-6.2c6.7-4.53,9.72-11.45,11.09-18.43h-6.34V84.5h7.28V72.84h-6.12V63h6.12V50.3h10V63h4.89V50.16h10V63h5.62v9.86h-5.62V84.5h6.77ZM227.1,84.5V72.84h-4.89V84.5Z"/><path class="cls-5" d="M250.79,79.75a80.94,80.94,0,0,0-3.24-9.14c1.58-.43,2.8-1.66,4.24-3.75a79.06,79.06,0,0,0,8.07-17.13l9.57,3.88a93.52,93.52,0,0,1-9,15.92l3.68-.22a85.38,85.38,0,0,0,5.11-9.43l8.57,5.54a110.41,110.41,0,0,1-10.15,14.76L273.47,78a52.27,52.27,0,0,1,5.11,14.26l-7.49,3a30.48,30.48,0,0,0-.5-3C256,94.8,253.16,95.59,251.36,96.6a84.57,84.57,0,0,0-3.24-9.21c2.16-.51,3.67-2,6.12-4.68.79-.8,2.16-2.45,3.82-4.54-4.61.57-6.19,1-7.27,1.51Zm7.34,20a75.72,75.72,0,0,1-2.88,17.71,52.46,52.46,0,0,0-7.7-2.66c1.65-4.1,2.3-10.51,2.59-16.35Zm7.56-1.87a125,125,0,0,1,1.87,14.4l-7.41,1.94a125.08,125.08,0,0,0-1.44-14.61Zm2.45-13.4c-.36-1.15-.87-2.23-1.3-3.31-1.15,1.37-2.3,2.74-3.45,4ZM315,75.07c-1.66,11.09-4.76,20.31-9.15,27.72A32.49,32.49,0,0,0,316,109.56a37.38,37.38,0,0,0-6.91,8.72,35.61,35.61,0,0,1-9.43-7.06,50.06,50.06,0,0,1-9,7.56,39.11,39.11,0,0,0-5.9-7.27,39.26,39.26,0,0,1-3.38,6.91,55.56,55.56,0,0,0-9-6.62,29.58,29.58,0,0,0,2.38-4l-5.26,1.88a88.77,88.77,0,0,0-3.16-11.6l6.84-2.3c1.08,2.74,2.16,6.19,2.95,8.93,4.18-10.59,5.11-25.35,5.11-41.91h-5.4V53h24l1.58-.36,7.2.86C307.81,60,306.59,67,305.37,73.2h1.22l1.8-.36Zm-21.68,27.87a54.2,54.2,0,0,1-4.25-8.64,81.26,81.26,0,0,1-3.89,15.91A33.52,33.52,0,0,0,293.34,102.94Zm-2.09-40.11c-.07,3.53-.14,7-.28,10.37h4.67c.65-3.31,1.23-7,1.81-10.37Zm3,19.59A54.43,54.43,0,0,0,299,93.94a53.72,53.72,0,0,0,4.25-11.52Z"/><g class="cls-6"><path class="cls-7" d="M384.13,172.33c15.81,12.29,67.16-25.64,67.16-25.64a4.39,4.39,0,0,0,.89-7.64L399.59,98.17a4.38,4.38,0,0,0-7.18,2.74S368.31,160,384.13,172.33Z"/><polygon class="cls-8" points="469.77 53.67 477.99 60.06 415.37 140.61 405 145.47 407.16 134.22 469.77 53.67"/><path class="cls-9" d="M507.52,54.25,468.13,23.62s-9.31,21.47,5.9,33.29S507.52,54.25,507.52,54.25Z"/></g></g></g></g></svg>