<svg xmlns="http://www.w3.org/2000/svg" xmlns:xlink="http://www.w3.org/1999/xlink" viewBox="0 0 559.46 221.54"><defs><style>.cls-1{fill:none;}.cls-2{clip-path:url(#clip-path);}.cls-3{fill:#d1b466;stroke:#000;stroke-miterlimit:10;}.cls-4,.cls-7{fill:#fff;}.cls-4{opacity:0.3;isolation:isolate;}.cls-5{fill:#313131;}.cls-6{opacity:0.5;}</style><clipPath id="clip-path"><path class="cls-1" d="M558.55,7.83l-8.71,13.41,8.71,13.41v.65l-8.69,13.39,8.53,13.15-8.27,12.74,8.42,13V88l-8.66,13.33,8.66,13.34v.75l-7.93,12.22,7.93,12.21v1.68l-8.6,13.24,8.6,13.24H.5V.5H558.55V.72h-4.22l4.22,6.5Z"/></clipPath></defs><title>領航級_1</title><g id="圖層_2" data-name="圖層 2"><g id="圖層_1-2" data-name="圖層 1"><g class="cls-2"><path class="cls-3" d="M558.55,7.83l-8.71,13.41,8.71,13.41v.65l-8.69,13.39,8.53,13.15-8.27,12.74,8.42,13V88l-8.66,13.33,8.66,13.34v.75l-7.93,12.22,7.93,12.21v1.68l-8.6,13.24,8.6,13.24H.5V.5H558.55V.72h-4.22l4.22,6.5Z"/><path class="cls-4" d="M200.07.92h27.85L308.19,168H280.34Z"/><path class="cls-4" d="M100.51.92H157.4L237.68,168H180.79Z"/><path class="cls-5" d="M113.74,71.89c1.42-1.92,2.77-3.91,4.13-6,2,1.92,4,4,5.83,6Zm-4,8.68h16.07V74.24c1.07,1.28,2,2.42,2.7,3.41l4.84-8.32a111.71,111.71,0,0,0-11.24-11.16c.57-1.14,1.14-2.35,1.64-3.56l-7.68-4.76A56.32,56.32,0,0,1,99.66,72.32a42.2,42.2,0,0,1,5.62,9.1c1.49-1.42,3-3,4.48-4.62Zm17.56,3.2-1.42.5H103.5v8.32h18.06a62,62,0,0,1-5.54,8.1c-1.5-1.28-3-2.48-4.27-3.48l-6.33,5.4a125.29,125.29,0,0,1,14.72,14.87l6.83-6.12c-1.21-1.35-2.63-2.91-4.27-4.55a81.56,81.56,0,0,0,10.67-19.13Zm28.23-8.11H142.9V72.53h12.65Zm0,10.1H142.9v-3.2h12.65Zm0,10.1H142.9V92.59h12.65Zm9.6,7.39V65.07H153.78c.42-1.14.85-2.35,1.21-3.63h11.94v-8.6H131.52v8.6H144l-.42,3.63h-9.82v38.18h6.83A46.13,46.13,0,0,1,127,111.43a63.56,63.56,0,0,1,6.54,6.69,56.22,56.22,0,0,0,15.79-10l-7.18-4.91h15l-7.18,5a93.38,93.38,0,0,1,11,9.82l7.89-5.76a105.19,105.19,0,0,0-11.3-9.11ZM237.4,60.8H225.88a62.41,62.41,0,0,0-4.26-10.45l-9.32,2.42a71.35,71.35,0,0,1,3.06,8h-12v9h34ZM184.85,91.09l.07-2.41,7.68-1.28v8.81c-.92-2.27-2.06-4.83-3.13-7Zm.07-18.34a58.15,58.15,0,0,1,2,6.68L192.6,77v2.42l-7.68,1.07Zm7.68,1.85a65.84,65.84,0,0,0-2.77-7.19l-4.91,1.92V66.7h7.68Zm39,33.28c-.14,0-.28-.15-.35-.43,0-.81,0-1.61,0-2.42V74.17H207.11V90.24c0,6.83-.43,15.22-5.83,21.33a23.23,23.23,0,0,0,.21-3.34V85.9l3.35-.57-.64-7.6-2.71.42V58.81H192c.79-2.13,1.64-4.55,2.49-7l-10.31-1.56a80.69,80.69,0,0,1-1.28,8.6H176v22.9c-1.77.28-3.41.42-4.9.64l1.14,8.39L176,90.1c-.14,8.11-.92,17.21-4.83,23.61a38,38,0,0,1,7.75,5c3.91-6.33,5.33-15.72,5.83-24.32a55,55,0,0,1,2.63,7.6l5.26-2.34v8.46c0,.78-.28,1.07-1,1.07s-3,.07-4.91-.07a29.46,29.46,0,0,1,2.56,8.67c4.05,0,7-.21,9.32-1.71a5.71,5.71,0,0,0,2.49-3.48,47,47,0,0,1,7.68,5.48c6.82-7,8-18.78,8-27.6V83.06h4.84v22.47c0,5.48.49,7.32,1.77,8.82a7,7,0,0,0,5.12,2.13h3.49a6.51,6.51,0,0,0,4.19-1.28,6.74,6.74,0,0,0,2.35-4,63.38,63.38,0,0,0,.85-9.81,21,21,0,0,1-6.75-3.7c0,3.55-.07,6.4-.14,7.68a6.17,6.17,0,0,1-.29,2.13c-.07.29-.21.36-.35.36Zm26.88-23c1.14-1.28,2.28-2.63,3.42-4,.42,1.06.92,2.13,1.28,3.27Zm-12.44-5.48a24.91,24.91,0,0,1,7.18-1.49c-1.63,2.06-3,3.7-3.77,4.48-2.41,2.63-3.91,4.12-6,4.62a83.9,83.9,0,0,1,3.2,9.1c1.78-1,4.62-1.77,19-4.33a29.85,29.85,0,0,1,.49,3l7.4-3a51.41,51.41,0,0,0-5-14.08l-5.76,2.2a108.63,108.63,0,0,0,10-14.58l-8.47-5.47a84.43,84.43,0,0,1-5,9.31l-3.63.22a93.26,93.26,0,0,0,8.89-15.72L255,49.85a78.29,78.29,0,0,1-8,16.92,8,8,0,0,1-4.2,3.7,78.08,78.08,0,0,1,3.2,9ZM245.44,98c-.28,5.76-.92,12.09-2.56,16.14a51.11,51.11,0,0,1,7.61,2.64,74.63,74.63,0,0,0,2.84-17.5Zm8.46,1.14a120.46,120.46,0,0,1,1.42,14.44l7.33-1.92a125.86,125.86,0,0,0-1.85-14.23Zm26.17,10.45a80.8,80.8,0,0,0,3.84-15.71,52.34,52.34,0,0,0,4.2,8.53A33.16,33.16,0,0,1,280.07,109.58Zm12.09-46.79c-.57,3.34-1.14,7-1.78,10.24h-4.62c.14-3.34.21-6.75.28-10.24Zm5.76,19.34a52.89,52.89,0,0,1-4.2,11.38A54.35,54.35,0,0,1,289,82.13ZM303,72.68l-1.78.35H300c1.21-6.11,2.42-13,3.13-19.41L296,52.77l-1.56.35H270.76v9.67h5.33c0,16.36-.93,30.94-5,41.39-.78-2.7-1.85-6.12-2.92-8.82l-6.75,2.28a88.46,88.46,0,0,1,3.13,11.45l5.19-1.85a29.79,29.79,0,0,1-2.35,3.91,55.3,55.3,0,0,1,8.89,6.54,37.89,37.89,0,0,0,3.34-6.83,39.13,39.13,0,0,1,5.83,7.19,49.68,49.68,0,0,0,8.89-7.47,35.35,35.35,0,0,0,9.32,7,36.47,36.47,0,0,1,6.83-8.61,32.12,32.12,0,0,1-10-6.68,75.26,75.26,0,0,0,9-27.38Z"/><g class="cls-6"><path class="cls-7" d="M420.48,114.3s36.32-45,53.3-47.43h7.77s-39.42,58-30.54,62.57"/><path class="cls-7" d="M406,146.87s-8.38,54.78,3,65l6,9.7s11.88-54.89,14.5-58.41c2.27-3.06,8.35,0,8.35,0"/><path class="cls-7" d="M466.76,137.78s-120-65.91-142-50.7,133,86.19,133,86.19L549.5,211l9-25.14Z"/><path class="cls-7" d="M501.81,156.12s33.8-29.12,47.69-18.26c0,0-22.49,31.44-11.56,37.17"/></g></g></g></g></svg>