<svg xmlns="http://www.w3.org/2000/svg" xmlns:xlink="http://www.w3.org/1999/xlink" viewBox="0 0 559.46 189.14"><defs><style>.cls-1,.cls-8{fill:none;}.cls-2{clip-path:url(#clip-path);}.cls-3{fill:#c69b6d;stroke:#000;}.cls-3,.cls-8,.cls-9{stroke-miterlimit:10;}.cls-10,.cls-4,.cls-7,.cls-9{fill:#fff;}.cls-4{opacity:0.3;isolation:isolate;}.cls-5{fill:#313131;}.cls-10,.cls-6{opacity:0.5;}.cls-8{stroke:#fff;stroke-width:5px;}.cls-9{stroke:#c69b6d;stroke-width:1.5px;}</style><clipPath id="clip-path"><path class="cls-1" d="M558.55,7.83l-8.71,13.41,8.71,13.41v.65l-8.69,13.39,8.53,13.15-8.27,12.74,8.42,13V88l-8.66,13.33,8.66,13.34v.75l-7.93,12.22,7.93,12.21v1.68l-8.6,13.24,8.6,13.24H.5V.5H558.55V.72h-4.22l4.22,6.5Z"/></clipPath></defs><title>前瞻級_1</title><g id="圖層_2" data-name="圖層 2"><g id="圖層_1-2" data-name="圖層 1"><g class="cls-2"><path class="cls-3" d="M558.55,7.83l-8.71,13.41,8.71,13.41v.65l-8.69,13.39,8.53,13.15-8.27,12.74,8.42,13V88l-8.66,13.33,8.66,13.34v.75l-7.93,12.22,7.93,12.21v1.68l-8.6,13.24,8.6,13.24H.5V.5H558.55V.72h-4.22l4.22,6.5Z"/><path class="cls-4" d="M200.07.92h27.85L308.19,168H280.34Z"/><path class="cls-4" d="M100.51.92H157.4L237.68,168H180.79Z"/><path class="cls-5" d="M138,108.84c0,4.18-.8,6.56-3.46,8s-6,1.65-10.23,1.65a34.47,34.47,0,0,0-3.24-8.78,54,54,0,0,0,5.69.07c.87,0,1.16-.29,1.16-1.08v-4.54H117.3c-.87,5.33-2.45,10.52-5.26,14.4a39.82,39.82,0,0,0-7.85-5.83c4.4-6.33,4.76-15.41,4.76-22.39V74.06H138Zm32.69-48.31V70H104.55V60.53h14a39.07,39.07,0,0,0-4.75-6.92l10-3.45c2.52,2.66,5.33,6.26,6.48,9l-4,1.37h19a60.39,60.39,0,0,0,5.4-10.44l11.45,3.31c-1.59,2.52-3.24,5-4.83,7.13ZM128,96.6V93.36h-9.73c0,1.08,0,2.16-.07,3.24Zm-9.65-14.4v3.6H128V82.2Zm34,22.18h-9.57V74.86h9.57ZM157.05,73h10.29v34.64c0,4.82-.86,7.42-4,9s-7.13,1.87-12.24,1.8a37.46,37.46,0,0,0-3.67-9.86c3.24.21,7,.21,8.13.14s1.52-.29,1.52-1.22Z"/><path class="cls-5" d="M236.25,70.61v1.87c0,1.22.07,1.94,1.22,1.94h1.08a15.56,15.56,0,0,0,4.1-.5,56.24,56.24,0,0,0,.51,5.83,15.66,15.66,0,0,1-4.39.51h-4.32c-5.76,0-6.63-3-6.63-7.85v-1.8h-2.73c-.65,5.18-2.88,8.57-10.81,9.79a16,16,0,0,0-2.88-5V77c0,1.8,0,3.74-.07,5.83h9.29a33.27,33.27,0,0,0-1.22-3.17l8.35-2.74c.86,1.8,1.87,4,2.59,5.91h13v5.83H211c-.57,10.08-2.08,21.53-5.54,29.81a38.36,38.36,0,0,0-8.35-5C201.61,102.72,202,87.17,202,77V76.3l-.93.79a33.48,33.48,0,0,0-3.39-6.55v35.78H186.27v6.2h-8.71v-59h20.09V67.66A48.36,48.36,0,0,0,202,63.41v-.07H202a44,44,0,0,0,7.85-13.11L219.32,52c-.35.86-.64,1.73-1.08,2.59h11.31l1.51-.36,6.48,4.32a49,49,0,0,1-3.17,4.83h9.51v7.27Zm-50-8.28v5.9h2.52v-5.9Zm0,20.52h2.52V76.73h-2.52Zm2.52,14.62V91.35h-2.52v6.12Zm22.61-23c3.39-.64,4.61-1.8,5-3.81h-5Zm.72,29.6h28.73v14.54h-9.5v-2.3H221.2v2.3h-9.08Zm28.16-8.57H213.06V90.27h27.22Zm-27.22,1.66h27.22v5.18H213.06Zm1.8-35.86a15.87,15.87,0,0,1-1.3,2.09h10.37c.36-.65.8-1.37,1.16-2.09ZM221.2,109v2.09h10.15V109Z"/><path class="cls-5" d="M250.79,79.75a80.94,80.94,0,0,0-3.24-9.14c1.58-.43,2.8-1.66,4.24-3.75a79.06,79.06,0,0,0,8.07-17.13l9.57,3.88a93.52,93.52,0,0,1-9,15.92l3.68-.22a85.38,85.38,0,0,0,5.11-9.43l8.57,5.54a110.41,110.41,0,0,1-10.15,14.76L273.47,78a52.27,52.27,0,0,1,5.11,14.26l-7.49,3a30.48,30.48,0,0,0-.5-3C256,94.8,253.16,95.59,251.36,96.6a84.57,84.57,0,0,0-3.24-9.21c2.16-.51,3.67-2,6.12-4.68.79-.8,2.16-2.45,3.82-4.54-4.61.57-6.19,1-7.27,1.51Zm7.34,20a75.72,75.72,0,0,1-2.88,17.71,52.46,52.46,0,0,0-7.7-2.66c1.65-4.1,2.3-10.51,2.59-16.35Zm7.56-1.87a125,125,0,0,1,1.87,14.4l-7.41,1.94a125.08,125.08,0,0,0-1.44-14.61Zm2.45-13.4c-.36-1.15-.87-2.23-1.3-3.31-1.15,1.37-2.3,2.74-3.45,4ZM315,75.07c-1.66,11.09-4.76,20.31-9.15,27.72A32.49,32.49,0,0,0,316,109.56a37.38,37.38,0,0,0-6.91,8.72,35.61,35.61,0,0,1-9.43-7.06,50.06,50.06,0,0,1-9,7.56,39.11,39.11,0,0,0-5.9-7.27,39.26,39.26,0,0,1-3.38,6.91,55.56,55.56,0,0,0-9-6.62,29.58,29.58,0,0,0,2.38-4l-5.26,1.88a88.77,88.77,0,0,0-3.16-11.6l6.84-2.3c1.08,2.74,2.16,6.19,2.95,8.93,4.18-10.59,5.11-25.35,5.11-41.91h-5.4V53h24l1.58-.36,7.2.86C307.81,60,306.59,67,305.37,73.2h1.22l1.8-.36Zm-21.68,27.87a54.2,54.2,0,0,1-4.25-8.64,81.26,81.26,0,0,1-3.89,15.91A33.52,33.52,0,0,0,293.34,102.94Zm-2.09-40.11c-.07,3.53-.14,7-.28,10.37h4.67c.65-3.31,1.23-7,1.81-10.37Zm3,19.59A54.43,54.43,0,0,0,299,93.94a53.72,53.72,0,0,0,4.25-11.52Z"/><g class="cls-6"><polyline class="cls-7" points="401.96 44.79 538.47 137.84 532.07 160.58 393.07 117.17"/><polyline class="cls-7" points="433.97 132.37 433.97 149.76 465.77 149.76 465.77 129.72 433.97 129.72 433.97 134.27"/><path class="cls-8" d="M449.87,149.76l-37.6,37.61Z"/><line class="cls-8" x1="449.87" y1="188.41" x2="449.87" y2="145.71"/><line class="cls-8" x1="449.87" y1="149.76" x2="486.12" y2="186.01"/><ellipse class="cls-9" cx="394.39" cy="80.02" rx="23.78" ry="37.16"/></g><polygon class="cls-10" points="538.47 137.84 544.18 135.47 535.71 166.12 532.07 160.58 538.47 137.84"/></g></g></g></svg>