<svg xmlns="http://www.w3.org/2000/svg" width="315.319" height="95.233" viewBox="0 0 315.319 95.233"><g transform="translate(-4892.823 653.739)"><g transform="translate(0 186)"><path d="M313.9,283.649l-4.9-7.543,4.9-7.543v-.37l-4.889-7.529,4.8-7.4-4.651-7.163,4.735-7.293v-.268l-4.871-7.5,4.871-7.5v-.425l-4.462-6.871,4.462-6.871v-.945l-4.835-7.446,4.835-7.446H0V287.77H313.9v-.121h-2.374l2.374-3.657Z" transform="translate(5207.642 -551.469) rotate(180)" fill="#d1b466" stroke="#000" stroke-miterlimit="10" stroke-width="1"/><path d="M0,0H15.665L60.818,93.99H45.153Z" transform="translate(5006 -839)" fill="#fff" opacity="0.3"/><path d="M0,0H32L77.153,93.99h-32Z" transform="translate(4950 -839)" fill="#fff" opacity="0.3"/><path d="M8.44,23.92c.8-1.08,1.56-2.2,2.32-3.36,1.12,1.08,2.24,2.24,3.28,3.36ZM6.2,28.8h9.04V25.24c.6.72,1.12,1.36,1.52,1.92l2.72-4.68a62.423,62.423,0,0,0-6.32-6.28c.32-.64.64-1.32.92-2L9.76,11.52A31.706,31.706,0,0,1,.52,24.16a23.592,23.592,0,0,1,3.16,5.12c.84-.8,1.68-1.68,2.52-2.6Zm9.88,1.8-.8.28H2.68v4.68H12.84a35.112,35.112,0,0,1-3.12,4.56c-.84-.72-1.68-1.4-2.4-1.96L3.76,41.2a70.445,70.445,0,0,1,8.28,8.36l3.84-3.44c-.68-.76-1.48-1.64-2.4-2.56a46.032,46.032,0,0,0,6-10.76Zm15.88-4.56H24.84V24.28h7.12Zm0,5.68H24.84v-1.8h7.12Zm0,5.68H24.84V35.56h7.12Zm5.4,4.16V20.08h-6.4c.24-.64.48-1.32.68-2.04h6.72V13.2H18.44v4.84h7.04l-.24,2.04H19.72V41.56h3.84a26.072,26.072,0,0,1-7.64,4.6,36.067,36.067,0,0,1,3.68,3.76,31.584,31.584,0,0,0,8.88-5.6l-4.04-2.76h8.44L28.84,44.4a52.169,52.169,0,0,1,6.2,5.52l4.44-3.24a59.022,59.022,0,0,0-6.36-5.12ZM78,17.68H71.52a34.946,34.946,0,0,0-2.4-5.88l-5.24,1.36a40.593,40.593,0,0,1,1.72,4.52H58.88v5.04H78ZM48.44,34.72l.04-1.36,4.32-.72V37.6c-.52-1.28-1.16-2.72-1.76-3.96Zm.04-10.32a34.073,34.073,0,0,1,1.12,3.76l3.2-1.36v1.36l-4.32.6Zm4.32,1.04a38.227,38.227,0,0,0-1.56-4.04l-2.76,1.08V21H52.8ZM74.76,44.16c-.08,0-.16-.08-.2-.24a13.505,13.505,0,0,1,0-1.36V25.2H60.96v9.04c0,3.84-.24,8.56-3.28,12a12.718,12.718,0,0,0,.12-1.88V31.8l1.88-.32-.36-4.28-1.52.24V16.56H52.48c.44-1.2.92-2.56,1.4-3.96l-5.8-.88a45.792,45.792,0,0,1-.72,4.84H43.48V29.44c-1,.16-1.92.24-2.76.36l.64,4.72,2.08-.36c-.08,4.56-.52,9.68-2.72,13.28a21.358,21.358,0,0,1,4.36,2.8c2.2-3.56,3-8.84,3.28-13.68a30.58,30.58,0,0,1,1.48,4.28l2.96-1.32v4.76c0,.44-.16.6-.56.6-.44,0-1.68.04-2.76-.04a16.647,16.647,0,0,1,1.44,4.88c2.28,0,3.92-.12,5.24-.96a3.22,3.22,0,0,0,1.4-1.96,26.592,26.592,0,0,1,4.32,3.08c3.84-3.96,4.48-10.56,4.48-15.52V30.2h2.72V42.84c0,3.08.28,4.12,1,4.96A3.928,3.928,0,0,0,72.96,49h1.96a3.681,3.681,0,0,0,2.36-.72,3.8,3.8,0,0,0,1.32-2.24,35.706,35.706,0,0,0,.48-5.52,11.692,11.692,0,0,1-3.8-2.08c0,2-.04,3.6-.08,4.32a3.366,3.366,0,0,1-.16,1.2c-.04.16-.12.2-.2.2ZM89.88,31.24c.64-.72,1.28-1.48,1.92-2.24.24.6.52,1.2.72,1.84Zm-7-3.08a13.925,13.925,0,0,1,4.04-.84c-.92,1.16-1.68,2.08-2.12,2.52-1.36,1.48-2.2,2.32-3.4,2.6a47.255,47.255,0,0,1,1.8,5.12c1-.56,2.6-1,10.68-2.44a16.3,16.3,0,0,1,.28,1.68l4.16-1.68a28.834,28.834,0,0,0-2.84-7.92l-3.24,1.24a61.036,61.036,0,0,0,5.64-8.2l-4.76-3.08a47.577,47.577,0,0,1-2.84,5.24l-2.04.12a52.209,52.209,0,0,0,5-8.84l-5.32-2.16a43.894,43.894,0,0,1-4.48,9.52,4.507,4.507,0,0,1-2.36,2.08,44.052,44.052,0,0,1,1.8,5.08ZM82.52,38.6c-.16,3.24-.52,6.8-1.44,9.08a28.37,28.37,0,0,1,4.28,1.48,42.078,42.078,0,0,0,1.6-9.84Zm4.76.64a68.682,68.682,0,0,1,.8,8.12l4.12-1.08a70.964,70.964,0,0,0-1.04-8ZM102,45.12a45.4,45.4,0,0,0,2.16-8.84,29.736,29.736,0,0,0,2.36,4.8A18.661,18.661,0,0,1,102,45.12Zm6.8-26.32c-.32,1.88-.64,3.92-1,5.76h-2.6c.08-1.88.12-3.8.16-5.76Zm3.24,10.88a29.716,29.716,0,0,1-2.36,6.4,30.4,30.4,0,0,1-2.68-6.4Zm2.84-5.32-1,.2h-.68c.68-3.44,1.36-7.32,1.76-10.92l-4-.48-.88.2H96.76V18.8h3c0,9.2-.52,17.4-2.84,23.28-.44-1.52-1.04-3.44-1.64-4.96l-3.8,1.28a49.227,49.227,0,0,1,1.76,6.44l2.92-1.04A16.853,16.853,0,0,1,94.84,46a31.117,31.117,0,0,1,5,3.68,21.411,21.411,0,0,0,1.88-3.84A22.012,22.012,0,0,1,105,49.88a27.851,27.851,0,0,0,5-4.2,19.745,19.745,0,0,0,5.24,3.92,20.7,20.7,0,0,1,3.84-4.84,18.135,18.135,0,0,1-5.6-3.76,42.292,42.292,0,0,0,5.08-15.4Z" transform="translate(4949 -823)" fill="#313131"/></g></g></svg>