<svg xmlns="http://www.w3.org/2000/svg" xmlns:xlink="http://www.w3.org/1999/xlink" viewBox="0 0 559.46 174.78"><defs><style>.cls-1,.cls-9{fill:none;}.cls-2{clip-path:url(#clip-path);}.cls-3{fill:#bcbcbc;stroke:#000;}.cls-3,.cls-8,.cls-9{stroke-miterlimit:10;}.cls-4,.cls-7,.cls-8{fill:#fff;}.cls-4{opacity:0.3;isolation:isolate;}.cls-5{fill:#313131;}.cls-6{opacity:0.5;}.cls-8{stroke:#bcbcbc;stroke-width:2px;}.cls-9{stroke:#fff;stroke-width:5px;}</style><clipPath id="clip-path"><path class="cls-1" d="M.91,7.83,9.62,21.24.91,34.65v.65L9.6,48.69,1.07,61.84,9.34,74.58l-8.42,13V88l8.66,13.33L.92,114.69v.75l7.93,12.22L.92,139.87v1.68l8.6,13.24L.92,168H559V.5H.91V.72H5.13L.91,7.22Z"/></clipPath></defs><title>深耕級_1</title><g id="圖層_2" data-name="圖層 2"><g id="圖層_1-2" data-name="圖層 1"><g class="cls-2"><path class="cls-3" d="M.91,7.83,9.62,21.24.91,34.65v.65L9.6,48.69,1.07,61.84,9.34,74.58l-8.42,13V88l8.66,13.33L.92,114.69v.75l7.93,12.22L.92,139.87v1.68l8.6,13.24L.92,168H559V.5H.91V.72H5.13L.91,7.22Z"/><path class="cls-4" d="M200.48.92h27.85L308.6,168H280.75Z"/><path class="cls-4" d="M100.93.92h56.89L238.09,168H181.2Z"/><path class="cls-5" d="M115.41,87.39c-2.52-2.6-8.14-6.49-12.1-9.08l6.19-7.13c3.89,2.24,9.65,5.76,12.46,8.21Zm9.14,7c-3.17,7.63-6.7,15.48-10.37,22.68l-9.36-6.41A204.78,204.78,0,0,0,116.27,88Zm-5.69-26.21c-2.45-2.52-8-6.55-11.81-9.29L113.53,52A120.37,120.37,0,0,1,125.34,60V53.18H170.2V68.52h-10V62H134.85v7h-9.51V60.89ZM158,95.38a47.25,47.25,0,0,0,14.19,11.09,40.34,40.34,0,0,0-7.06,8.13,50.46,50.46,0,0,1-13-12.45v16.41h-10.3V102.29A45.52,45.52,0,0,1,127,115a44.62,44.62,0,0,0-6.91-8.29A40.62,40.62,0,0,0,135.5,95.38H124.69V86.09h17.14V79.32h10.3v6.77h17.64v9.29Zm-11.3-31.47c-.58,10.23-3,16.06-19.15,18.87a25,25,0,0,0-4.9-8.07c13.1-1.51,14.26-4.25,14.62-10.8Zm19.37,8.57a22.54,22.54,0,0,0,5-.58c.14,2.38.43,6.41.72,8.64a17.55,17.55,0,0,1-5.55.58h-5.9c-8.78,0-10.87-2.81-10.87-11V63.91h9.21v6.27c0,1.58.22,2.3,1.44,2.3Z"/><path class="cls-5" d="M199.43,108.41a73.5,73.5,0,0,0-4.17-6.12v16.27h-9.87v-14.4a41.59,41.59,0,0,1-6,9.72,57,57,0,0,0-4.17-9.57,52.57,52.57,0,0,0,8-13.61h-6.7V81.77h8.93V78.24H177.9V69.38h7.49V65.64c-2.23.29-4.47.5-6.63.65a30.06,30.06,0,0,0-2.66-7.56c3-.36,6.27-.8,9.29-1.3V50.16h9.87v5.11c1.08-.29,2-.65,3-.94l6.91,7.35a76.39,76.39,0,0,1-9.86,2.45v5.25h7.34v8.86h-7.34v3.53h8.49V90.7h-8.49v.5c2.8,2.59,8.49,8.57,9.93,10.15Zm44.86-14h-6.77v24.19h-10V94.37h-5.68C220.46,104,217,113.16,208.72,119a47.54,47.54,0,0,0-8.14-6.2c6.7-4.53,9.72-11.45,11.09-18.43h-6.33V84.5h7.27V72.84h-6.12V63h6.12V50.3h10V63h4.89V50.16h10V63h5.62v9.86h-5.62V84.5h6.77ZM227.51,84.5V72.84h-4.89V84.5Z"/><path class="cls-5" d="M251.2,79.75A80.94,80.94,0,0,0,248,70.61c1.58-.43,2.8-1.66,4.25-3.75a79.16,79.16,0,0,0,8.06-17.13l9.58,3.88a94.89,94.89,0,0,1-9,15.92l3.67-.22a85.38,85.38,0,0,0,5.11-9.43l8.57,5.54a110.41,110.41,0,0,1-10.15,14.76L273.88,78c2.38,4.54,4.54,10.37,5.11,14.26l-7.49,3a27.8,27.8,0,0,0-.5-3c-14.55,2.59-17.43,3.38-19.23,4.39a84.57,84.57,0,0,0-3.24-9.21c2.16-.51,3.68-2,6.12-4.68.8-.8,2.16-2.45,3.82-4.54-4.61.57-6.19,1-7.27,1.51Zm7.34,20a75.72,75.72,0,0,1-2.88,17.71,52.06,52.06,0,0,0-7.7-2.66c1.65-4.1,2.3-10.51,2.59-16.35Zm7.56-1.87A125,125,0,0,1,268,112.3l-7.41,1.94a123,123,0,0,0-1.44-14.61Zm2.45-13.4c-.36-1.15-.86-2.23-1.29-3.31-1.16,1.37-2.31,2.74-3.46,4Zm46.88-9.43c-1.66,11.09-4.76,20.31-9.15,27.72a32.49,32.49,0,0,0,10.08,6.77,37.38,37.38,0,0,0-6.91,8.72,35.61,35.61,0,0,1-9.43-7.06,50.34,50.34,0,0,1-9,7.56,39.58,39.58,0,0,0-5.91-7.27,38.58,38.58,0,0,1-3.38,6.91,55.9,55.9,0,0,0-9-6.62,30.62,30.62,0,0,0,2.37-4l-5.25,1.88a90.51,90.51,0,0,0-3.17-11.6l6.84-2.3c1.08,2.74,2.16,6.19,3,8.93,4.18-10.59,5.11-25.35,5.11-41.91h-5.4V53h24l1.59-.36,7.2.86C308.23,60,307,67,305.78,73.2H307l1.8-.36Zm-21.68,27.87a54.16,54.16,0,0,1-4.24-8.64,82.71,82.71,0,0,1-3.89,15.91A33.67,33.67,0,0,0,293.75,102.94Zm-2.08-40.11c-.08,3.53-.15,7-.29,10.37h4.68c.65-3.31,1.22-7,1.8-10.37Zm2.95,19.59a54.43,54.43,0,0,0,4.82,11.52,53.72,53.72,0,0,0,4.25-11.52Z"/><g class="cls-6"><path class="cls-7" d="M384.54,172.33c15.81,12.29,67.16-25.64,67.16-25.64a4.39,4.39,0,0,0,.89-7.64L400,98.17a4.39,4.39,0,0,0-7.19,2.74S368.73,160,384.54,172.33Z"/><polygon class="cls-8" points="470.18 53.67 478.4 60.06 415.79 140.61 405.42 145.47 407.57 134.22 470.18 53.67"/><path class="cls-9" d="M507.93,54.25,468.54,23.62s-9.3,21.47,5.9,33.29S507.93,54.25,507.93,54.25Z"/></g></g></g></g></svg>