<svg xmlns="http://www.w3.org/2000/svg" xmlns:xlink="http://www.w3.org/1999/xlink" viewBox="0 0 559.46 189.14"><defs><style>.cls-1,.cls-8{fill:none;}.cls-2{clip-path:url(#clip-path);}.cls-3{fill:#c69b6d;stroke:#000;}.cls-3,.cls-8,.cls-9{stroke-miterlimit:10;}.cls-10,.cls-4,.cls-7,.cls-9{fill:#fff;}.cls-4{opacity:0.3;isolation:isolate;}.cls-5{fill:#313131;}.cls-10,.cls-6{opacity:0.5;}.cls-8{stroke:#fff;stroke-width:5px;}.cls-9{stroke:#c69b6d;stroke-width:1.5px;}</style><clipPath id="clip-path"><path class="cls-1" d="M.91,7.83,9.62,21.24.91,34.65v.65L9.6,48.69,1.07,61.84,9.34,74.58l-8.42,13V88l8.66,13.33L.92,114.69v.75l7.93,12.22L.92,139.87v1.68l8.6,13.24L.92,168H559V.5H.91V.72H5.13L.91,7.22Z"/></clipPath></defs><title>前瞻級_1</title><g id="圖層_2" data-name="圖層 2"><g id="圖層_1-2" data-name="圖層 1"><g class="cls-2"><path class="cls-3" d="M.91,7.83,9.62,21.24.91,34.65v.65L9.6,48.69,1.07,61.84,9.34,74.58l-8.42,13V88l8.66,13.33L.92,114.69v.75l7.93,12.22L.92,139.87v1.68l8.6,13.24L.92,168H559V.5H.91V.72H5.13L.91,7.22Z"/><path class="cls-4" d="M200.48.92h27.85L308.6,168H280.75Z"/><path class="cls-4" d="M100.93.92h56.89L238.09,168H181.2Z"/><path class="cls-5" d="M138.45,108.84c0,4.18-.79,6.56-3.46,8s-6,1.65-10.22,1.65a35.24,35.24,0,0,0-3.24-8.78,54,54,0,0,0,5.69.07c.86,0,1.15-.29,1.15-1.08v-4.54H117.71c-.86,5.33-2.45,10.52-5.26,14.4a39.82,39.82,0,0,0-7.85-5.83c4.4-6.33,4.76-15.41,4.76-22.39V74.06h29.09Zm32.69-48.31V70H105V60.53h14a39.07,39.07,0,0,0-4.75-6.92l10-3.45c2.52,2.66,5.33,6.26,6.48,9l-4,1.37h19a59.7,59.7,0,0,0,5.4-10.44l11.45,3.31c-1.58,2.52-3.24,5-4.82,7.13ZM128.37,96.6V93.36h-9.72c0,1.08,0,2.16-.08,3.24Zm-9.65-14.4v3.6h9.65V82.2Zm34,22.18h-9.58V74.86h9.58ZM157.46,73h10.29v34.64c0,4.82-.86,7.42-4,9s-7.13,1.87-12.24,1.8a37.12,37.12,0,0,0-3.67-9.86c3.24.21,7,.21,8.14.14s1.51-.29,1.51-1.22Z"/><path class="cls-5" d="M236.66,70.61v1.87c0,1.22.07,1.94,1.22,1.94H239a15.69,15.69,0,0,0,4.11-.5,53.56,53.56,0,0,0,.5,5.83,15.66,15.66,0,0,1-4.39.51h-4.32c-5.76,0-6.63-3-6.63-7.85v-1.8H225.5c-.65,5.18-2.88,8.57-10.8,9.79a16.38,16.38,0,0,0-2.88-5V77c0,1.8,0,3.74-.08,5.83H221a33.27,33.27,0,0,0-1.22-3.17l8.35-2.74c.87,1.8,1.87,4,2.59,5.91h13v5.83H211.46c-.58,10.08-2.09,21.53-5.55,29.81a38.36,38.36,0,0,0-8.35-5c4.46-10.73,4.82-26.28,4.82-36.43V76.3l-.93.79a33.48,33.48,0,0,0-3.39-6.55v35.78H186.69v6.2H178v-59h20.09V67.66a47.06,47.06,0,0,0,4.32-4.25v-.07h.08a44.19,44.19,0,0,0,7.84-13.11L219.74,52c-.36.86-.65,1.73-1.08,2.59H230l1.51-.36L238,58.51a50.63,50.63,0,0,1-3.16,4.83h9.5v7.27Zm-50-8.28v5.9h2.52v-5.9Zm0,20.52h2.52V76.73h-2.52Zm2.52,14.62V91.35h-2.52v6.12Zm22.61-23c3.38-.64,4.6-1.8,5-3.81h-5Zm.72,29.6h28.73v14.54h-9.51v-2.3H221.61v2.3h-9.07Zm28.15-8.57H213.47V90.27h27.22Zm-27.22,1.66h27.22v5.18H213.47Zm1.8-35.86A16.89,16.89,0,0,1,214,63.34h10.36c.37-.65.8-1.37,1.16-2.09ZM221.61,109v2.09h10.15V109Z"/><path class="cls-5" d="M251.2,79.75A80.94,80.94,0,0,0,248,70.61c1.58-.43,2.8-1.66,4.25-3.75a79.16,79.16,0,0,0,8.06-17.13l9.58,3.88a94.89,94.89,0,0,1-9,15.92l3.67-.22a85.38,85.38,0,0,0,5.11-9.43l8.57,5.54a110.41,110.41,0,0,1-10.15,14.76L273.88,78c2.38,4.54,4.54,10.37,5.11,14.26l-7.49,3a27.8,27.8,0,0,0-.5-3c-14.55,2.59-17.43,3.38-19.23,4.39a84.57,84.57,0,0,0-3.24-9.21c2.16-.51,3.68-2,6.12-4.68.8-.8,2.16-2.45,3.82-4.54-4.61.57-6.19,1-7.27,1.51Zm7.34,20a75.72,75.72,0,0,1-2.88,17.71,52.06,52.06,0,0,0-7.7-2.66c1.65-4.1,2.3-10.51,2.59-16.35Zm7.56-1.87A125,125,0,0,1,268,112.3l-7.41,1.94a123,123,0,0,0-1.44-14.61Zm2.45-13.4c-.36-1.15-.86-2.23-1.29-3.31-1.16,1.37-2.31,2.74-3.46,4Zm46.88-9.43c-1.66,11.09-4.76,20.31-9.15,27.72a32.49,32.49,0,0,0,10.08,6.77,37.38,37.38,0,0,0-6.91,8.72,35.61,35.61,0,0,1-9.43-7.06,50.34,50.34,0,0,1-9,7.56,39.58,39.58,0,0,0-5.91-7.27,38.58,38.58,0,0,1-3.38,6.91,55.9,55.9,0,0,0-9-6.62,30.62,30.62,0,0,0,2.37-4l-5.25,1.88a90.51,90.51,0,0,0-3.17-11.6l6.84-2.3c1.08,2.74,2.16,6.19,3,8.93,4.18-10.59,5.11-25.35,5.11-41.91h-5.4V53h24l1.59-.36,7.2.86C308.23,60,307,67,305.78,73.2H307l1.8-.36Zm-21.68,27.87a54.16,54.16,0,0,1-4.24-8.64,82.71,82.71,0,0,1-3.89,15.91A33.67,33.67,0,0,0,293.75,102.94Zm-2.08-40.11c-.08,3.53-.15,7-.29,10.37h4.68c.65-3.31,1.22-7,1.8-10.37Zm2.95,19.59a54.43,54.43,0,0,0,4.82,11.52,53.72,53.72,0,0,0,4.25-11.52Z"/><g class="cls-6"><polyline class="cls-7" points="402.37 44.79 538.88 137.84 532.48 160.58 393.48 117.17"/><polyline class="cls-7" points="434.39 132.37 434.39 149.76 466.19 149.76 466.19 129.72 434.39 129.72 434.39 134.27"/><path class="cls-8" d="M450.29,149.76l-37.61,37.61Z"/><line class="cls-8" x1="450.29" y1="188.41" x2="450.29" y2="145.71"/><line class="cls-8" x1="450.29" y1="149.76" x2="486.53" y2="186.01"/><ellipse class="cls-9" cx="394.8" cy="80.02" rx="23.78" ry="37.16"/></g><polygon class="cls-10" points="538.88 137.84 544.59 135.47 536.12 166.12 532.48 160.58 538.88 137.84"/></g></g></g></svg>