<svg xmlns="http://www.w3.org/2000/svg" viewBox="0 0 559.46 168.53"><defs><style>.cls-1{fill:#ababd6;stroke:#000;stroke-miterlimit:10;}.cls-2,.cls-4{fill:#fff;}.cls-2{opacity:0.3;isolation:isolate;}.cls-3{fill:#313131;}.cls-4{opacity:0.5;}</style></defs><title>特別感謝_1</title><g id="圖層_2" data-name="圖層 2"><g id="圖層_1-2" data-name="圖層 1"><path class="cls-1" d="M558.55,7.83l-8.71,13.41,8.71,13.41v.65l-8.69,13.39,8.53,13.15-8.27,12.74,8.42,13V88l-8.66,13.33,8.66,13.34v.75l-7.93,12.22,7.93,12.21v1.68l-8.6,13.24,8.6,13.24H.5V.5H558.55V.72h-4.22l4.22,6.5Z"/><path class="cls-2" d="M200.07.92h27.85L308.19,168H280.34Z"/><path class="cls-2" d="M100.51.92H157.4L237.68,168H180.79Z"/><path class="cls-3" d="M105.87,94.8c-2.09.58-4.25,1.08-6.41,1.66v22.18H89.6V98.91l-8.79,2.16L78.29,90.41c3.17-.5,7.06-1.22,11.31-2.09V73.78H86.5a65.68,65.68,0,0,1-2.23,8.78A47.45,47.45,0,0,0,77,79.75C79.23,74,80.45,64.63,81,56l7.7,1.15q-.21,3.36-.65,6.7H89.6V50.23h9.86V63.84h5.62v9.94H99.46V86.31l5.33-1.16Zm13.54-29.52H106.66V55.85h12.75V50.16h10.37v5.69h13.89v9.43H129.78v4.46h11.09v9.65H109V69.74h10.37Zm25.85,29h-6.12v13c0,5-.87,7.71-4.18,9.29s-7.42,1.8-12.82,1.8a41.57,41.57,0,0,0-3.09-10.3c3.09.15,7.13.15,8.28.15s1.44-.22,1.44-1.15V94.3H118a58.73,58.73,0,0,1,7.49,9.57l-8.21,5.41c-1.44-3-5-7.71-7.85-11.09l6.19-3.89h-8.93V84.72h22.11v-4.1h10.37v4.1h6.12Z"/><path class="cls-3" d="M184.57,84.51s-.07,2.52-.15,3.67c-.65,17.06-1.37,24.19-3.38,26.71a8.24,8.24,0,0,1-5.83,3.17,50.66,50.66,0,0,1-8.64.36,21.55,21.55,0,0,0-2.74-9,59.77,59.77,0,0,0,6.48.29,2.68,2.68,0,0,0,2.38-.94c.93-1.15,1.51-5.33,1.94-15.19h-5.69c-1.8,9.58-5.26,18.5-12.89,25.06a27.3,27.3,0,0,0-7-7.71c9.43-7.77,10.65-19.87,11.16-31.32h-6.84v-26h30.38v26H170.45c-.07,1.66-.21,3.24-.36,4.9ZM162.82,70.39h10.87V62.76H162.82Zm35.5,29.88H188.17V59.09h10.15Zm16.85-48.53v54.58c0,5.84-1.08,8.64-4.39,10.37s-8.57,2-15.2,2a41.42,41.42,0,0,0-3.6-10.87c4.54.21,9.29.21,10.88.21,1.36,0,1.94-.43,1.94-1.8V51.74Z"/><path class="cls-3" d="M287.31,68.09a56.4,56.4,0,0,1-11,18c1.51,12.67,3.74,22,5.47,22,.79,0,1.44-3.6,1.58-11.3a24.4,24.4,0,0,0,7.64,5.83c-1.37,12.53-4.11,15.41-10.59,15.41s-10.51-10.22-12.89-24.12c-.93.65-1.87,1.22-2.81,1.8-.72-.87-1.87-2.23-3.09-3.53v.72h-7.27a99.78,99.78,0,0,1,4.6,9l-6.69,3.6c-.51-1.37-1.3-3.17-2.16-5.11v8.35c0,2,.21,2.16,1.58,2.16h3.46c1.29,0,1.65-1.08,1.87-7.34a16.77,16.77,0,0,0,4.1,2.09c-.86-2.45-1.72-4.9-2.59-7.06l6.7-2.59c2.16,5.18,4.89,12.17,6.12,16.34l-7.2,3.17c-.29-1-.58-2.23-.94-3.46-1.15,4.32-3.24,5.69-7.2,5.69h-5.76c-6.84,0-8.35-2.23-8.35-8.93v-5.47c-.58,4.32-1.37,9.15-2,12.6l-7.06-2.73a137.13,137.13,0,0,0,3.1-17l6,2.16V96.46h6.26l-1-2,3.1-1.51H237.7V76.08h23.91v10.3A50.72,50.72,0,0,0,266,83.14c-.65-6-1.08-12.17-1.37-18.36H236.84V67h26.5v6.77h-26.5c-.29,13.25-1.88,32.47-7.92,45.07a35.29,35.29,0,0,0-8.28-5.47c6.12-12.75,6.62-31.47,6.62-43.49V56.57h37.08c0-2.16-.07-4.25-.07-6.34h10.08l-.07,2.3,5.18-3.45c2.09,1.73,5,4.17,6.49,5.76l-2.38,1.73h5v8.21H274.5q.21,3.78.43,7.56a36.11,36.11,0,0,0,3-6.56Zm-41.18,18h7.41V83h-7.41Zm28.15-29.52h2.59c-.86-.87-1.73-1.73-2.59-2.45Z"/><path class="cls-3" d="M315.32,70.32H294.87V62.18h7.85a63.61,63.61,0,0,0-3.46-9l7.27-2.73a54.92,54.92,0,0,1,4.25,9.79L306,62.18h9.29Zm46.37,3.82h-2.88V108.2c0,4.39-.79,6.76-3.31,8.28s-6.05,1.87-10.88,1.87a35.88,35.88,0,0,0-3.24-8.93c2.74.14,5.62.14,6.63.14s1.37-.36,1.37-1.44V94.8l-6.12,2a57.17,57.17,0,0,0-1.08-6.27,58.47,58.47,0,0,1-4.54,6V109.2c0,3.82-.65,6.12-2.95,7.56s-5.33,1.59-9.58,1.59a28.88,28.88,0,0,0-2.66-8.21c2.23.14,4.75.07,5.54.07s1.15-.29,1.15-1.15v-4.25a82.47,82.47,0,0,1-11.88,8.07,53,53,0,0,0-3.81-7.49v9.36h-9.22v2.81H297v-25h16.42V105a62.8,62.8,0,0,0,13.24-8.57l-11.3,1.22-.72-7.85,1.87-.14V58.3h5.33a70,70,0,0,0,1.73-8.14l10.15,1.37c-.93,2.3-2,4.61-3,6.77h6.91V86.45l3.82,1.44a83.18,83.18,0,0,0-2.6-8.21l7.35-2.23a81,81,0,0,1,3.17,8.86V74.14H338.94V64.56h10.44V50.73h9.43V64.56h2.88Zm-48.46,6.12H297.32V72.48h15.91Zm-15.91,2.16h15.91v7.77H297.32Zm8.78,18.07h-1.87v6.34h1.87Zm23-34.2h-4.25v2.23h4.25Zm-4.25,11.45h4.25V75.58h-4.25Zm0,11.23,4.25-.36V84.79h-4.25Z"/><polygon class="cls-4" points="509.19 140.08 454.4 102.37 399.61 140.08 437.31 85.29 399.61 30.49 454.4 68.2 509.19 30.49 471.48 85.29 509.19 140.08"/></g></g></svg>