<svg xmlns="http://www.w3.org/2000/svg" viewBox="0 0 313.18 164.31"><defs><style>.cls-1{fill:#707070;}.cls-2{fill:#fff;}</style></defs><title>Date</title><g id="圖層_2" data-name="圖層 2"><g id="圖層_1-2" data-name="圖層 1"><path class="cls-1" d="M264.91,163.21l45.24-42.75c4.33-4.09,2.75-10.7,2.74-16.29q-.08-23.06-.13-46.1Q312.7,31,312.67,4c0-4.83-7.5-4.84-7.5,0q0,56.12.25,112.25c.37-.89.74-1.77,1.1-2.65L259.6,157.91C256.09,161.23,261.4,166.53,264.91,163.21Z"/><rect class="cls-2" x="3.76" y="50.89" width="258.5" height="109.67"/><path class="cls-1" d="M262.26,156.81H3.76l3.75,3.75V50.89L3.76,54.64h258.5l-3.75-3.75V160.56c0,4.83,7.5,4.84,7.5,0V50.89a3.81,3.81,0,0,0-3.75-3.75H3.76A3.8,3.8,0,0,0,0,50.89V160.56a3.8,3.8,0,0,0,3.75,3.75h258.5C267.08,164.31,267.09,156.81,262.26,156.81Z"/><path class="cls-1" d="M264.91,53.55,311.52,6.93a3.79,3.79,0,0,0-2.65-6.4L181.77.38,93.29.28,63.81.24c-4.21,0-8.81-.53-13,0-3,.36-5.18,3.5-7.21,5.53L27.37,22,1.1,48.24C-2.31,51.66,3,57,6.41,53.55L53.33,6.63l-2.66,1.1,87.36.1L277.12,8l31.75,0c-.89-2.13-1.77-4.27-2.65-6.4L259.6,48.24C256.19,51.66,261.49,57,264.91,53.55Z"/><path class="cls-1" d="M55.91,78.44H70.53c16.27,0,26.35,8.42,26.35,26.43S86.8,131.72,71.1,131.72H55.91Zm14,44.72c9.94,0,16.13-5.33,16.13-18.29S79.82,86.94,69.88,86.94H66.57v36.22Z"/><path class="cls-1" d="M104.44,120.78c0-8.64,7-13.18,23.18-14.91-.14-4-1.87-7-6.84-7-3.74,0-7.34,1.66-11.09,3.82l-3.81-7c4.75-3,10.51-5.33,16.85-5.33,10.22,0,15.48,6.12,15.48,17.79v23.54h-8.64l-.79-4.32h-.22c-3.53,3-7.56,5.33-12.17,5.33C109.19,132.73,104.44,127.62,104.44,120.78Zm23.18-.29v-8.14c-9.79,1.3-13.1,4-13.1,7.56,0,3.17,2.23,4.54,5.33,4.54S125.1,123,127.62,120.49Z"/><path class="cls-1" d="M149.22,117.61V99.75h-5.69V91.91l6.2-.51L151,80.6h8.86V91.4h9.93v8.35h-9.93v17.86c0,4.61,1.87,6.77,5.47,6.77a11.86,11.86,0,0,0,4-.86l1.73,7.7a26.08,26.08,0,0,1-8.5,1.51C152.89,132.73,149.22,126.68,149.22,117.61Z"/><path class="cls-1" d="M174.06,111.63c0-13.1,9.15-21.24,18.79-21.24,11.09,0,16.85,8.14,16.85,19.3a19.56,19.56,0,0,1-.5,4.82H184.36c.86,6.63,5.18,10.09,11.16,10.09a16.62,16.62,0,0,0,9.07-2.81l3.6,6.48a25.47,25.47,0,0,1-14.11,4.46C182.85,132.73,174.06,124.88,174.06,111.63Zm26.57-4.1c0-5.47-2.45-8.93-7.63-8.93-4.25,0-8,3-8.79,8.93Z"/></g></g></svg>