<svg xmlns="http://www.w3.org/2000/svg" viewBox="0 0 313.18 164.31"><defs><style>.cls-1{fill:#fff;}.cls-2{fill:#707070;}</style></defs><title>Place</title><g id="圖層_2" data-name="圖層 2"><g id="圖層_1-2" data-name="圖層 1"><rect class="cls-1" x="3.76" y="50.89" width="258.5" height="109.67"/><path class="cls-2" d="M262.26,156.81H3.76l3.75,3.75V50.89L3.76,54.64h258.5l-3.75-3.75V160.56c0,4.83,7.5,4.84,7.5,0V50.89a3.81,3.81,0,0,0-3.75-3.75H3.76A3.8,3.8,0,0,0,0,50.89V160.56a3.8,3.8,0,0,0,3.75,3.75h258.5C267.08,164.31,267.09,156.81,262.26,156.81Z"/><path class="cls-2" d="M264.91,53.55,311.52,6.93a3.79,3.79,0,0,0-2.65-6.4L181.77.38,93.29.28,63.81.24c-4.21,0-8.81-.53-13,0-3,.36-5.18,3.5-7.21,5.53L27.37,22Q14.25,35.11,1.1,48.24C-2.31,51.66,3,57,6.41,53.55L53.33,6.63l-2.65,1.1,87.35.1L277.12,8l31.75,0c-.89-2.13-1.77-4.27-2.65-6.4L259.6,48.24C256.19,51.66,261.49,57,264.91,53.55Z"/><path class="cls-2" d="M264.91,163.21l45.24-42.75c4.33-4.09,2.75-10.7,2.74-16.29q-.08-23.06-.13-46.1Q312.7,31,312.67,4c0-4.83-7.5-4.84-7.5,0q0,56.12.26,112.25c.36-.89.73-1.77,1.09-2.65L259.6,157.91C256.09,161.23,261.4,166.53,264.91,163.21Z"/><path class="cls-2" d="M42.12,78.44h17.5c11.81,0,20.88,4.1,20.88,16.71,0,12.16-9.14,17.64-20.59,17.64H52.78v18.93H42.12Zm17.07,25.92c7.34,0,10.87-3.09,10.87-9.21s-3.89-8.29-11.23-8.29h-6v17.5Z"/><path class="cls-2" d="M89.28,120.42V74.26H99.8v46.66c0,2.38,1.15,3.17,2.16,3.17a6.14,6.14,0,0,0,1.44-.14l1.29,7.85a14.47,14.47,0,0,1-5.47.93C91.87,132.73,89.28,127.91,89.28,120.42Z"/><path class="cls-2" d="M109.94,120.78c0-8.64,7-13.18,23.19-14.91-.14-4-1.87-7-6.84-7-3.74,0-7.34,1.66-11.09,3.82l-3.81-7c4.75-3,10.51-5.33,16.85-5.33,10.22,0,15.48,6.12,15.48,17.79v23.54h-8.64l-.8-4.32h-.21c-3.53,3-7.56,5.33-12.17,5.33C114.7,132.73,109.94,127.62,109.94,120.78Zm23.19-.29v-8.14c-9.79,1.3-13.1,4-13.1,7.56,0,3.17,2.23,4.54,5.33,4.54S130.61,123,133.13,120.49Z"/><path class="cls-2" d="M152,111.63c0-13.46,9.65-21.24,20.6-21.24a17.61,17.61,0,0,1,11.73,4.47l-5,6.84A9.18,9.18,0,0,0,173.09,99c-6.12,0-10.3,5-10.3,12.6s4.18,12.46,10,12.46a12.53,12.53,0,0,0,7.85-3.24l4.18,7a20,20,0,0,1-13.18,4.89C160.49,132.73,152,125,152,111.63Z"/><path class="cls-2" d="M187.85,111.63c0-13.1,9.14-21.24,18.79-21.24,11.09,0,16.85,8.14,16.85,19.3a19.56,19.56,0,0,1-.5,4.82H198.15c.86,6.63,5.18,10.09,11.16,10.09a16.62,16.62,0,0,0,9.07-2.81l3.6,6.48a25.47,25.47,0,0,1-14.11,4.46C196.63,132.73,187.85,124.88,187.85,111.63Zm26.57-4.1c0-5.47-2.45-8.93-7.63-8.93-4.25,0-8,3-8.79,8.93Z"/></g></g></svg>