<svg xmlns="http://www.w3.org/2000/svg" width="65.268" height="94.542" viewBox="0 0 65.268 94.542"><g transform="translate(-42.012 -31.448)" opacity="0.65"><path d="M71.505,34.382a15.531,15.531,0,0,1,12.041-2.654s-1.092,7.815-6.594,12.024-13.331,3.213-13.331,3.213a68.138,68.138,0,0,0,3.408-5.936C68.024,39.068,69.477,35.935,71.505,34.382Z" transform="translate(15.721 0)"/><path d="M62.908,37.409a7.245,7.245,0,0,0-5.621-1.24,9.5,9.5,0,0,0,3.078,5.615,9.5,9.5,0,0,0,6.226,1.5S65.8,42.079,65,40.512A9.269,9.269,0,0,0,62.908,37.409Z" transform="translate(11.113 3.34)"/><path d="M61.947,52.526c.753,0,1.5.035,2.254.083-.67-4-.539-8.163,1.517-11.739-3.6,2.9-5.348,7.33-6.254,11.756C60.291,52.567,61.12,52.526,61.947,52.526Z" transform="translate(12.698 6.855)"/><path d="M74.645,48.392A32.635,32.635,0,1,0,107.28,81.027,32.634,32.634,0,0,0,74.645,48.392ZM87.98,94.362,74.645,85.185,61.312,94.362l9.177-13.335L61.312,67.694,74.645,76.87,87.98,67.694,78.8,81.027Z" transform="translate(0 12.328)"/></g></svg>