<svg xmlns="http://www.w3.org/2000/svg" viewBox="0 0 519.81 292.84"><defs><style>.cls-1{fill:#fff;}.cls-2{fill:#707070;}.cls-3{fill:#7f7f7f;}</style></defs><title>投稿箱</title><g id="圖層_2" data-name="圖層 2"><g id="圖層_1-2" data-name="圖層 1"><polygon class="cls-1" points="515.17 4.86 98.32 4.86 4.52 87.59 421.38 87.59 515.17 4.86"/><path class="cls-2" d="M515.17.36H112c-5.16,0-13.21-1.58-17.49,1.87C79.85,14.07,66.11,27.28,52,39.75L4.3,81.8l-3,2.61c-3,2.64-.55,7.68,3.18,7.68H407.69c5.17,0,13.21,1.59,17.5-1.87,14.66-11.84,28.4-25,42.53-37.51l47.68-42,3-2.61c4.35-3.84-2-10.19-6.37-6.37l-82.1,72.41L418.2,84.41l3.18-1.32H21.46c-5.11,0-11.18-.91-16.23,0a4.21,4.21,0,0,1-.71,0L7.7,90.77,89.8,18.36,101.5,8.05,98.32,9.36H498.23c5.37,0,10.88.38,16.24,0h.7C521,9.36,521,.36,515.17.36Z"/><rect class="cls-1" x="4.52" y="87.59" width="416.86" height="200.59"/><path class="cls-2" d="M421.38,283.68H21.46c-5.07,0-11.22-1-16.23,0a4.21,4.21,0,0,1-.71,0l4.5,4.5V87.59l-4.5,4.5H404.44c5.07,0,11.22,1,16.23,0a4.21,4.21,0,0,1,.71,0l-4.5-4.5V288.18c0,5.79,9,5.8,9,0V87.59a4.57,4.57,0,0,0-4.5-4.5H21.46c-5.36,0-10.88-.37-16.23,0H4.52A4.57,4.57,0,0,0,0,87.59V288.18a4.57,4.57,0,0,0,4.5,4.5H404.44c5.36,0,10.88.37,16.23,0,.24,0,.48,0,.71,0C427.17,292.68,427.18,283.68,421.38,283.68Z"/><polygon class="cls-1" points="515.17 205.45 421.38 288.18 421.38 87.59 515.17 4.86 515.17 205.45"/><path class="cls-2" d="M512,202.27l-82.1,72.41L418.2,285l7.68,3.19V87.59l-1.32,3.18,82.1-72.41,11.7-10.31-7.69-3.19V205.45c0,5.79,9,5.8,9,0V4.86c0-4.08-4.83-5.69-7.68-3.18L463.6,44.36,431.21,72.93l-10,8.87c-2,1.75-3.93,2.94-4.28,5.8-.57,4.58,0,9.59,0,14.2V288.18c0,4.08,4.83,5.69,7.68,3.18L506.66,219l11.7-10.32C522.71,204.79,516.32,198.45,512,202.27Z"/><polygon class="cls-3" points="378.85 46.9 127.79 47.02 135.71 40.91 386.62 40.91 378.85 46.9"/><path class="cls-2" d="M378.85,45.4l-84.75,0-135.17.06-31.14,0,.75,2.79,5.06-3.9c.64-.49,3.45-2.33,2.2-2a11.78,11.78,0,0,1,2.72,0h248.1l-.76-2.8-7.77,6c-1.51,1.16,0,3.77,1.51,2.59l7.78-6a1.51,1.51,0,0,0-.76-2.79H139.13a15.45,15.45,0,0,0-3.33,0c-3.09.74-6.26,4.38-8.77,6.31a1.52,1.52,0,0,0,.76,2.8l84.74,0,135.17-.06,31.15,0A1.5,1.5,0,0,0,378.85,45.4Z"/><path class="cls-2" d="M378.85,46.11H119.75l.75,2.79,12.19-9.4c.8-.61,1.67-1.17,2.41-1.85.39-.36,1.63-.92.21-.53a4.21,4.21,0,0,1,.71,0c4-.45,8.36,0,12.39,0h246l-.76-2.8-15.55,12c-1.5,1.17,0,3.77,1.52,2.59l15.55-12a1.51,1.51,0,0,0-.76-2.79H152.15c-5.2,0-10.62-.44-15.8,0a5.75,5.75,0,0,0-3.69,1.65L119,46.31a1.52,1.52,0,0,0,.76,2.8h259.1A1.5,1.5,0,0,0,378.85,46.11Z"/><path class="cls-2" d="M90.4,180.65c-1-8.52-6.35-12.69-16.22-12.69-8.7,0-14.26,3.52-14.26,8.89,0,4.54,3.42,7.23,11.72,9l10.55,2.23c7.72,1.66,11.63,3.24,14.75,5.93a15.07,15.07,0,0,1,5.28,11.86c0,11.67-10,18.9-25.79,18.9-16.91,0-27.06-8.15-28.43-23h9.67c1,9.82,7.81,15.29,19,15.29,9.38,0,16-4.36,16-10.57,0-4.63-3.52-7.69-10.35-9.26L67.73,193.9c-11.92-2.68-17.29-7.69-17.29-16,0-10.84,9.48-17.7,24.42-17.7s23,6.58,25,20.48Z"/><rect class="cls-2" x="114.42" y="161.56" width="9.28" height="61.81"/><polygon class="cls-2" points="162.49 223.37 153.21 223.37 153.21 169.25 132.89 169.25 132.89 161.56 182.81 161.56 182.81 169.25 162.49 169.25 162.49 223.37"/><path class="cls-2" d="M234.87,180.93c-2-8.16-8.5-13.07-17.48-13.07-12.51,0-20.72,9.64-20.72,24.19,0,14.92,8.21,25,20.42,25,10.16,0,17.2-6.49,18.66-17.24h9.38c-.78,6.12-2.25,10-5.57,14.37-5.37,7-12.89,10.56-22.66,10.56S199.51,221.24,194,214.2a35.13,35.13,0,0,1-7.14-22c0-18.81,12.61-32.06,30.49-32.06,13.87,0,23.74,7.42,26.57,19.93Z"/><path class="cls-2" d="M371.44,223.37l-26.67-39c-3.23-4.82-5.18-7.88-6.74-10.66.19,2.78.29,8.62.29,11.68v38h-8.79V161.56H339l25.6,37.62A147.71,147.71,0,0,1,372.32,212c-.2-3.43-.3-7.23-.3-11.58V161.93h8.8v61.44Z"/><path class="cls-2" d="M297.84,134a15.5,15.5,0,0,1,12-2.65s-1.09,7.81-6.59,12S290,146.54,290,146.54a68.42,68.42,0,0,0,3.41-5.94c1-2,2.45-5.1,4.48-6.65"/><path class="cls-2" d="M284.63,140.32a7.22,7.22,0,0,0-5.62-1.24s.51,3.65,3.08,5.61a9.49,9.49,0,0,0,6.22,1.51s-.79-1.21-1.59-2.78a9.18,9.18,0,0,0-2.09-3.1"/><path class="cls-2" d="M285.25,159c.76,0,1.51,0,2.26.09-.67-4-.54-8.17,1.52-11.74-3.6,2.89-5.35,7.33-6.26,11.76.83-.06,1.66-.11,2.48-.11"/><path class="cls-2" d="M285.25,160.29a32.64,32.64,0,1,0,32.65,32.64,32.64,32.64,0,0,0-32.65-32.64m13.34,46-13.34-9.18-13.33,9.18,9.18-13.34-9.18-13.33,13.33,9.18,13.34-9.18-9.18,13.33Z"/></g></g></svg>