<svg xmlns="http://www.w3.org/2000/svg" viewBox="0 0 744.58 260.75"><defs><style>.cls-1,.cls-3{fill:#fff;stroke-width:5px;}.cls-1{stroke:#000;}.cls-1,.cls-2,.cls-3{stroke-miterlimit:10;}.cls-2{fill:none;stroke:#7f7f7f;stroke-width:3px;}.cls-3{stroke:#3a3a3a;}</style></defs><title>資產 3</title><g id="圖層_2" data-name="圖層 2"><g id="圖層_1-2" data-name="圖層 1"><polygon class="cls-1" points="625.19 28.19 208.33 29.73 114.85 112.81 531.7 111.26 625.19 28.19"/><rect class="cls-1" x="115.11" y="112.03" width="416.86" height="143.94" transform="translate(-0.68 1.2) rotate(-0.21)"/><polygon class="cls-1" points="625.72 172.13 532.24 255.2 531.7 111.26 625.19 28.19 625.72 172.13"/><path class="cls-2" d="M215.92,182.75c-.8-6.77-5.09-10.07-12.93-10-6.9,0-11.32,2.84-11.3,7.11,0,3.61,2.74,5.73,9.34,7.1l8.39,1.74c6.14,1.3,9.25,2.54,11.74,4.67a12,12,0,0,1,4.22,9.41c0,9.28-7.86,15-20.43,15.09-13.43,0-21.53-6.39-22.66-18.17l7.69,0c.8,7.8,6.25,12.13,15.18,12.09,7.45,0,12.71-3.51,12.7-8.44,0-3.68-2.82-6.1-8.26-7.33L198,193.34c-9.48-2.1-13.76-6.06-13.79-12.68,0-8.62,7.48-14.09,19.36-14.14s18.26,5.16,19.93,16.2Z"/><rect class="cls-2" x="235.04" y="167.5" width="7.37" height="49.11" transform="translate(-0.71 0.89) rotate(-0.21)"/><polygon class="cls-2" points="273.32 216.48 265.95 216.5 265.79 173.51 249.64 173.56 249.62 167.46 289.29 167.31 289.31 173.42 273.16 173.48 273.32 216.48"/><path class="cls-2" d="M330.71,182.54c-1.58-6.47-6.79-10.35-13.93-10.33-9.94,0-16.43,7.72-16.39,19.28.05,11.85,6.6,19.85,16.3,19.82,8.07,0,13.64-5.21,14.78-13.75l7.45,0c-.61,4.86-1.76,8-4.39,11.43-4.24,5.61-10.21,8.43-18,8.46s-13.83-2.75-18.2-8.33a27.91,27.91,0,0,1-5.73-17.42c-.05-14.95,9.92-25.52,24.13-25.57,11,0,18.88,5.82,21.17,15.75Z"/><path class="cls-2" d="M439.34,215.86,418,184.94c-2.58-3.82-4.14-6.24-5.39-8.44.16,2.2.26,6.84.27,9.27L413,216l-7,0-.18-49.1,7.53,0,20.45,29.81A118.25,118.25,0,0,1,440,206.8c-.17-2.72-.26-5.74-.27-9.2l-.11-30.55,7,0,.18,48.81Z"/><path class="cls-2" d="M380.6,145a12.32,12.32,0,0,1,9.56-2.14s-.84,6.21-5.2,9.57-10.59,2.59-10.59,2.59a51.8,51.8,0,0,0,2.69-4.72c.79-1.56,1.93-4.06,3.54-5.3"/><path class="cls-2" d="M370.12,150.13a5.78,5.78,0,0,0-4.47-1,6.31,6.31,0,0,0,7.42,5.63s-.64-1-1.28-2.2a7.22,7.22,0,0,0-1.67-2.46"/><path class="cls-2" d="M370.68,164.93c.59,0,1.19,0,1.79.06a13.85,13.85,0,0,1,1.17-9.33c-2.85,2.31-4.23,5.84-4.94,9.36q1-.08,2-.09"/><path class="cls-2" d="M370.68,166a25.94,25.94,0,1,0,26,25.84,25.94,25.94,0,0,0-26-25.84m10.73,36.49-10.62-7.25-10.57,7.33,7.25-10.63-7.33-10.56,10.62,7.25,10.57-7.33-7.25,10.62Z"/><polygon class="cls-3" points="626.12 28.19 625.19 28.19 531.7 111.26 641.28 87.55 735.7 4.48 626.12 28.19"/><polygon class="cls-3" points="208.33 29.73 99.53 3.43 5.27 87.55 114.85 112.81 208.33 29.73"/></g></g></svg>