<svg xmlns="http://www.w3.org/2000/svg" viewBox="0 0 521.23 344"><defs><style>.cls-1{fill:#fff;stroke:#000;stroke-width:4px;}.cls-1,.cls-3,.cls-4{stroke-miterlimit:10;}.cls-2{fill:#7f7f7f;}.cls-3,.cls-4{fill:none;}.cls-3{stroke:#3a3a3a;}.cls-4{stroke:#7f7f7f;stroke-width:3px;}</style></defs><title>資產 4</title><g id="圖層_2" data-name="圖層 2"><g id="圖層_1-2" data-name="圖層 1"><polygon class="cls-1" points="515.94 4.43 99.08 4.43 5.29 87.16 422.15 87.16 515.94 4.43"/><rect class="cls-1" x="5.29" y="87.15" width="416.86" height="252.41"/><polygon class="cls-1" points="515.94 256.84 422.15 339.57 422.15 87.16 515.94 4.43 515.94 256.84"/><polygon class="cls-2" points="379.62 47.18 128.14 47.29 136.06 41.18 387.39 41.18 379.62 47.18"/><polygon class="cls-3" points="379.62 47.18 120.52 47.18 136.06 35.19 395.17 35.19 379.62 47.18"/><line class="cls-3" x1="136.07" y1="35.19" x2="136.07" y2="41.18"/><path class="cls-4" d="M105.9,210.88c-.77-6.77-5-10.09-12.88-10.09-6.91,0-11.34,2.8-11.34,7.07,0,3.61,2.72,5.74,9.32,7.14l8.38,1.77c6.14,1.32,9.24,2.58,11.72,4.71a12,12,0,0,1,4.2,9.42c0,9.28-7.92,15-20.5,15-13.43,0-21.5-6.47-22.59-18.25H79.9c.78,7.8,6.21,12.14,15.14,12.14,7.45,0,12.73-3.46,12.73-8.39,0-3.68-2.8-6.11-8.23-7.36l-11.65-2.65c-9.47-2.14-13.73-6.11-13.73-12.74,0-8.61,7.52-14.06,19.4-14.06s18.24,5.22,19.87,16.27Z"/><rect class="cls-4" x="124.99" y="195.71" width="7.37" height="49.11"/><polygon class="cls-4" points="163.18 244.82 155.81 244.82 155.81 201.82 139.66 201.82 139.66 195.71 179.33 195.71 179.33 201.82 163.18 201.82 163.18 244.82"/><path class="cls-4" d="M220.7,211.1c-1.56-6.48-6.76-10.38-13.9-10.38-9.93,0-16.45,7.66-16.45,19.21,0,11.86,6.52,19.88,16.22,19.88,8.07,0,13.66-5.15,14.83-13.69h7.45c-.62,4.86-1.79,7.95-4.43,11.41-4.27,5.6-10.24,8.39-18,8.39s-13.81-2.79-18.16-8.39a27.88,27.88,0,0,1-5.67-17.45c0-14.94,10-25.47,24.22-25.47,11,0,18.86,5.89,21.12,15.83Z"/><path class="cls-4" d="M329.2,244.82l-21.19-31c-2.56-3.83-4.11-6.26-5.35-8.46.15,2.2.23,6.84.23,9.27v30.19h-7V195.71h7.53l20.34,29.89a115.6,115.6,0,0,1,6.13,10.16c-.15-2.72-.23-5.74-.23-9.2V196h7v48.81Z"/><path class="cls-4" d="M270.72,173.77a12.37,12.37,0,0,1,9.57-2.11s-.87,6.21-5.24,9.56-10.59,2.55-10.59,2.55,1.35-2.05,2.71-4.72c.79-1.55,1.94-4,3.55-5.28"/><path class="cls-4" d="M260.23,178.83a5.76,5.76,0,0,0-4.47-1,6.29,6.29,0,0,0,7.4,5.65s-.63-1-1.27-2.2a7.47,7.47,0,0,0-1.66-2.47"/><path class="cls-4" d="M260.73,193.64c.59,0,1.19,0,1.79.07a13.85,13.85,0,0,1,1.2-9.33c-2.86,2.3-4.25,5.82-5,9.34.66-.05,1.32-.08,2-.08"/><path class="cls-4" d="M260.73,194.7a25.94,25.94,0,1,0,25.93,25.94,25.94,25.94,0,0,0-25.93-25.94m10.59,36.53-10.59-7.29-10.6,7.29,7.29-10.59L250.13,210l10.6,7.29L271.32,210,264,220.64Z"/></g></g></svg>