<svg xmlns="http://www.w3.org/2000/svg" viewBox="0 0 478.48 199.67"><defs><style>.cls-1{fill:#fff;}.cls-2,.cls-3{fill:#707070;}.cls-3{font-size:60px;font-family:NotoSansCJKtc-Bold-B5pc-H, Noto Sans CJK TC;}.cls-4{letter-spacing:-0.03em;}.cls-5{letter-spacing:-0.04em;}</style></defs><title>資產 2</title><g id="圖層_2" data-name="圖層 2"><g id="圖層_1-2" data-name="圖層 1"><rect class="cls-1" x="3.75" y="50.86" width="424" height="125.49"/><path class="cls-2" d="M427.75,172.61H10.22c-1.73,0-4-.4-5.72,0a3.76,3.76,0,0,1-.75,0l3.75,3.75V50.86L3.75,54.61H421.29c1.73,0,4,.41,5.72,0a3.66,3.66,0,0,1,.74,0L424,50.86v125.5c0,4.82,7.5,4.83,7.5,0V50.86a3.8,3.8,0,0,0-3.75-3.75H21.11c-5.49,0-11.14-.39-16.61,0-.25,0-.5,0-.75,0A3.81,3.81,0,0,0,0,50.86v125.5a3.8,3.8,0,0,0,3.75,3.75H410.4c5.49,0,11.14.39,16.61,0,.25,0,.5,0,.74,0C432.58,180.11,432.59,172.61,427.75,172.61Z"/><text class="cls-3" transform="translate(21.31 136.91)">SI<tspan class="cls-4" x="57.24" y="0">T</tspan><tspan class="cls-5" x="92.88" y="0">C</tspan><tspan x="129.96" y="0">ON 2019</tspan></text><path class="cls-2" d="M430.41,53.52,477,6.9a3.64,3.64,0,0,0,1-3.65l-.12-.3A3.93,3.93,0,0,0,474.24.19H60.93C56,.19,50.45-1,46.71,2.61,32.63,16.24,19,30.34,5.12,44.2l-4,4C-2.31,51.63,3,56.93,6.41,53.52L53.33,6.6,50.67,7.69H467.78c1.73,0,4,.41,5.72,0a3.66,3.66,0,0,1,.74,0l-3.61-2.75.12.31,1-3.65L425.1,48.21c-3.41,3.42,1.89,8.72,5.31,5.31Z"/><path class="cls-2" d="M430.41,179l23.09-21.82L469.58,142c2.48-2.34,5.56-4.58,7.69-7.26,1.63-2.06,1.15-4.85,1.14-7.35q0-8.38,0-16.76l-.12-52q-.06-27.27-.08-54.55c0-4.83-7.5-4.84-7.5,0q0,57.74.22,115.49l0,12.46,1.1-2.66L425.1,173.71c-3.51,3.32,1.8,8.62,5.31,5.3Z"/></g></g></svg>