<svg xmlns="http://www.w3.org/2000/svg" viewBox="0 0 478.48 180.28"><defs><style>.cls-1{fill:#fff;}.cls-2{fill:#707070;}</style></defs><title>SITCON 2019 箱子 </title><g id="圖層_2" data-name="圖層 2"><g id="圖層_1-2" data-name="圖層 1"><rect class="cls-1" x="3.75" y="50.86" width="424" height="125.49"/><path class="cls-2" d="M427.75,172.61H10.22c-1.73,0-4-.4-5.72,0a3.76,3.76,0,0,1-.75,0l3.75,3.75V50.86L3.75,54.61H421.29c1.73,0,4,.41,5.72,0a3.66,3.66,0,0,1,.74,0L424,50.86v125.5c0,4.82,7.5,4.83,7.5,0V50.86a3.8,3.8,0,0,0-3.75-3.75H21.11c-5.49,0-11.14-.39-16.61,0-.25,0-.5,0-.75,0A3.81,3.81,0,0,0,0,50.86v125.5a3.8,3.8,0,0,0,3.75,3.75H410.4c5.49,0,11.14.39,16.61,0,.25,0,.5,0,.74,0C432.58,180.11,432.59,172.61,427.75,172.61Z"/><path class="cls-2" d="M23.83,131.27l5.1-6.12c3.18,2.94,7.38,4.92,11.28,4.92,4.62,0,7.08-2,7.08-5.1,0-3.3-2.7-4.32-6.66-6l-5.94-2.52c-4.5-1.86-9-5.46-9-11.94,0-7.26,6.36-12.84,15.36-12.84A19.7,19.7,0,0,1,55,97.37L50.47,103a14.16,14.16,0,0,0-9.42-3.66c-3.9,0-6.42,1.74-6.42,4.68,0,3.18,3.18,4.32,7,5.82l5.82,2.46c5.4,2.22,8.94,5.64,8.94,12.06,0,7.26-6.06,13.44-16.32,13.44A23.66,23.66,0,0,1,23.83,131.27Z"/><path class="cls-2" d="M64.21,92.51h8.88v44.4H64.21Z"/><path class="cls-2" d="M92.83,99.89H80.35V92.51h34v7.38h-12.6v37H92.83Z"/><path class="cls-2" d="M117.49,114.89c0-14.64,9.42-23.22,20.64-23.22a18.11,18.11,0,0,1,13,5.7L146.47,103a11.45,11.45,0,0,0-8.16-3.72c-6.72,0-11.76,5.76-11.76,15.3s4.56,15.48,11.58,15.48a12.35,12.35,0,0,0,9.18-4.38l4.68,5.52a18,18,0,0,1-14.16,6.54C126.61,137.75,117.49,129.71,117.49,114.89Z"/><path class="cls-2" d="M154.63,114.53c0-14.46,8.1-22.86,19.86-22.86s19.86,8.46,19.86,22.86-8.1,23.22-19.86,23.22S154.63,128.93,154.63,114.53Zm30.66,0c0-9.54-4.2-15.24-10.8-15.24s-10.8,5.7-10.8,15.24,4.2,15.54,10.8,15.54S185.29,124,185.29,114.53Z"/><path class="cls-2" d="M203.05,92.51h9.06L225,116.15l4.44,9.6h.3c-.48-4.62-1.14-10.5-1.14-15.54V92.51H237v44.4h-9l-12.84-23.76-4.5-9.54h-.3c.42,4.8,1.08,10.38,1.08,15.48v17.82h-8.4Z"/><path class="cls-2" d="M258.73,131.81c12.06-10.8,19.2-19.14,19.2-26,0-4.5-2.46-7.2-6.66-7.2-3.24,0-5.94,2.1-8.16,4.56l-4.8-4.8c4.08-4.32,8-6.72,14.1-6.72,8.4,0,14,5.4,14,13.68,0,8-6.66,16.68-14.76,24.6,2.22-.24,5.16-.48,7.2-.48h9.66v7.44H258.73Z"/><path class="cls-2" d="M294.13,114.53c0-15.36,6-22.86,15.06-22.86s15,7.56,15,22.86-6,23.22-15,23.22S294.13,129.83,294.13,114.53Zm21.72,0c0-12.42-2.88-16-6.66-16s-6.72,3.6-6.72,16,2.88,16.32,6.72,16.32S315.85,127,315.85,114.53Z"/><path class="cls-2" d="M331.75,129.77h9.54V101.69h-8V96.23a28.8,28.8,0,0,0,10.32-3.72h6.54v37.26h8.34v7.14h-26.7Z"/><path class="cls-2" d="M369.91,127.43a10.19,10.19,0,0,0,7,3.12c5,0,9.12-3.78,9.48-14.94a12.35,12.35,0,0,1-9.12,4.86c-7.38,0-12.72-4.56-12.72-14,0-9.12,6.36-14.82,14-14.82,8.4,0,16,6.6,16,22,0,16.8-8.22,24.06-17,24.06a16.65,16.65,0,0,1-12.18-5Zm16.38-18c-.78-8.1-3.84-11.1-7.62-11.1-3.3,0-6,2.7-6,8.16,0,5.22,2.46,7.68,6.3,7.68C381.37,114.17,384.13,112.85,386.29,109.43Z"/><path class="cls-2" d="M430.41,53.52,477,6.9a3.64,3.64,0,0,0,1-3.65l-.12-.3A3.93,3.93,0,0,0,474.24.19H60.93C56,.19,50.45-1,46.71,2.61,32.63,16.24,19,30.34,5.12,44.2l-4,4C-2.31,51.63,3,56.93,6.41,53.52L53.33,6.6,50.67,7.69H467.78c1.73,0,4,.41,5.72,0a3.66,3.66,0,0,1,.74,0l-3.62-2.75c.05.1.09.21.13.31.32-1.22.65-2.43,1-3.65L425.1,48.21C421.69,51.63,427,56.93,430.41,53.52Z"/><path class="cls-2" d="M430.41,179l23.09-21.82L469.58,142c2.48-2.34,5.56-4.58,7.69-7.26,1.63-2.06,1.15-4.85,1.14-7.35q0-8.38,0-16.76l-.12-52q-.06-27.27-.08-54.55c0-4.83-7.5-4.84-7.5,0q0,57.74.22,115.49l0,12.46,1.1-2.66L425.1,173.71C421.59,177,426.9,182.32,430.41,179Z"/></g></g></svg>