<svg xmlns="http://www.w3.org/2000/svg" width="324" height="324" viewBox="0 0 324 324"><g transform="translate(-1140 -1222)"><g transform="translate(1214.259 1259.705)"><path d="M-345.5,353.793c13.917-10.642,30.453-6.715,30.453-6.715s-2.761,19.77-16.678,30.412-33.72,8.128-33.72,8.128a170.958,170.958,0,0,0,8.621-15.014C-354.306,365.648-350.633,357.718-345.5,353.793Z" transform="translate(459.867 -346.37)" fill="#936d3b"/><path d="M-398.082,383.8c-6.5-4.969-14.222-3.136-14.222-3.136s1.291,9.233,7.788,14.2,15.746,3.8,15.746,3.8a80.073,80.073,0,0,1-4.026-7.011C-393.972,389.332-395.686,385.63-398.082,383.8Z" transform="translate(479.047 -360.271)" fill="#936d3b"/><path d="M-389.909,445.556c1.9,0,3.8.085,5.7.21-1.694-10.114-1.361-20.647,3.837-29.692-9.1,7.325-13.525,18.541-15.819,29.737C-394.1,445.658-392.006,445.556-389.909,445.556Z" transform="translate(472.452 -374.903)" fill="#936d3b"/><path d="M-442.758,471.723A82.543,82.543,0,0,0-525.3,554.266a82.543,82.543,0,0,0,82.543,82.543,82.543,82.543,0,0,0,82.543-82.543A82.543,82.543,0,0,0-442.758,471.723Zm33.727,116.27-33.727-23.212-33.726,23.212,23.212-33.727-23.212-33.727,33.726,23.212,33.727-23.212-23.212,33.727Z" transform="translate(525.301 -397.682)" fill="#936d3b"/></g><g transform="translate(1140 1222)" fill="none" stroke="#936d3b" stroke-width="10"><circle cx="162" cy="162" r="162" stroke="none"/><circle cx="162" cy="162" r="157" fill="none"/></g></g></svg>