<svg xmlns="http://www.w3.org/2000/svg" viewBox="0 0 692.44 281.35"><defs><style>.cls-1{fill:#fff;}.cls-2{fill:#707070;}</style></defs><title>贊助箱</title><g id="圖層_2" data-name="圖層 2"><g id="圖層_1-2" data-name="圖層 1"><polygon class="cls-1" points="578.15 49.04 202.52 50.59 109.03 133.66 484.66 132.11 578.15 49.04"/><path class="cls-2" d="M578.15,45.29l-63.64.26-137.15.57-129.72.53-37.42.15c-2.38,0-4.9-.21-7.28,0-2.85.3-4.69,2.54-6.77,4.39l-87.38,77.65L106.38,131c-2.47,2.2-.47,6.42,2.65,6.41l63.64-.27,137.15-.56,129.72-.53,37.42-.16c2.38,0,4.9.22,7.28,0,2.85-.29,4.69-2.54,6.77-4.38l87.38-77.65,2.41-2.14c3.61-3.21-1.71-8.5-5.31-5.3L493.66,119.1,482,129.46l2.65-1.1-37.29.15-89.58.37-108.43.45-93.84.38-31,.13c-4.55,0-10.38-.94-14.85.06a2.73,2.73,0,0,1-.64,0l2.66,6.4,81.83-72.72,11.65-10.35-2.65,1.09,37.29-.15,89.58-.37,108.43-.44L531.66,53l31-.13c4.9,0,10,.32,14.85-.06h.64C583,52.77,583,45.27,578.15,45.29Z"/><rect class="cls-1" x="109.3" y="132.96" width="375.4" height="143.94" transform="translate(-0.76 1.1) rotate(-0.21)"/><path class="cls-2" d="M485,272.46l-37.27.14-89.53.33-108.36.4-93.78.35-31,.11c-4.49,0-10.45-1-14.85.06a2.66,2.66,0,0,1-.63,0l3.75,3.75-.47-126.12-.07-17.82L109,137.41l37.27-.14,89.53-.33,108.37-.4,93.78-.35,31-.12c4.5,0,10.45,1,14.85,0a2.66,2.66,0,0,1,.63,0l-3.75-3.75.47,126.12.07,17.82c0,4.83,7.52,4.83,7.5,0l-.47-126.12-.07-17.82a3.8,3.8,0,0,0-3.75-3.75l-37.26.14-89.53.33-108.37.4-93.78.35-31,.11c-4.9,0-10-.32-14.85.06H109a3.81,3.81,0,0,0-3.75,3.75l.47,126.12.07,17.82a3.8,3.8,0,0,0,3.75,3.75l37.27-.14,89.52-.33,108.37-.4,93.78-.35,31-.11c4.9,0,9.95.32,14.84-.06H485C489.79,279.94,489.8,272.44,485,272.46Z"/><polygon class="cls-1" points="578.41 192.98 484.93 276.05 484.39 132.11 577.88 49.04 578.41 192.98"/><path class="cls-2" d="M575.76,190.33,493.93,263,482.27,273.4l6.41,2.65-.47-126.12-.07-17.82-1.1,2.65,81.84-72.71,11.65-10.36L574.13,49l.47,126.12.06,17.82c0,4.83,7.52,4.84,7.5,0L581.7,66.86,581.63,49c0-3.39-4-4.76-6.4-2.65l-87.5,77.75c-2.72,2.41-6.73,4.71-7.08,8.55-.51,5.52,0,11.36.06,16.9l.27,73.29.2,53.17c0,3.39,4,4.77,6.4,2.66L569.41,206l11.65-10.36C584.68,192.42,579.36,187.13,575.76,190.33Z"/><path class="cls-2" d="M189.73,199.9c-.85-7.38-5.49-11-14-11-7.52,0-12.33,3-12.33,7.69,0,3.93,3,6.25,10.14,7.77l9.12,1.93c6.68,1.44,10.06,2.8,12.76,5.13A13,13,0,0,1,200,221.69c0,10.1-8.62,16.35-22.3,16.35-14.62,0-23.41-7-24.59-19.87h8.36c.85,8.49,6.76,13.22,16.48,13.22,8.11,0,13.86-3.77,13.86-9.14,0-4-3-6.65-9-8l-12.67-2.88c-10.31-2.33-15-6.66-15-13.87,0-9.37,8.2-15.3,21.13-15.3s19.85,5.68,21.62,17.71Z"/><rect class="cls-2" x="210.51" y="183.39" width="8.03" height="53.45"/><polygon class="cls-2" points="252.07 236.84 244.05 236.84 244.05 190.04 226.47 190.04 226.47 183.39 269.65 183.39 269.65 190.04 252.07 190.04 252.07 236.84"/><path class="cls-2" d="M314.68,200.14c-1.69-7.06-7.36-11.3-15.13-11.3-10.81,0-17.91,8.33-17.91,20.91,0,12.9,7.1,21.64,17.66,21.64,8.79,0,14.87-5.61,16.14-14.91h8.11c-.68,5.29-1.95,8.66-4.82,12.43-4.65,6.09-11.15,9.13-19.6,9.13s-15-3-19.77-9.13a30.34,30.34,0,0,1-6.17-19c0-16.26,10.9-27.72,26.36-27.72,12,0,20.53,6.41,23,17.22Z"/><path class="cls-2" d="M432.78,236.84,409.71,203.1c-2.79-4.17-4.47-6.81-5.83-9.21.17,2.4.26,7.45.26,10.09v32.86h-7.61V183.39h8.2l22.13,32.53A125,125,0,0,1,433.54,227c-.17-3-.25-6.25-.25-10V183.71h7.6v53.13Z"/><path class="cls-2" d="M369.13,159.51a13.43,13.43,0,0,1,10.41-2.3s-.94,6.76-5.7,10.4-11.53,2.78-11.53,2.78,1.47-2.23,2.95-5.13c.86-1.7,2.11-4.41,3.87-5.75"/><path class="cls-2" d="M357.71,165a6.33,6.33,0,0,0-4.87-1.07,6.86,6.86,0,0,0,8.05,6.16s-.69-1-1.38-2.4a8.2,8.2,0,0,0-1.8-2.69"/><path class="cls-2" d="M358.25,181.13c.65,0,1.3,0,1.94.07-.58-3.46-.46-7.06,1.32-10.15-3.11,2.5-4.63,6.34-5.41,10.17.71-.05,1.43-.09,2.15-.09"/><path class="cls-2" d="M358.25,182.29a28.23,28.23,0,1,0,28.22,28.23,28.23,28.23,0,0,0-28.22-28.23m11.53,39.76-11.53-7.94-11.54,7.94,7.94-11.53L346.71,199l11.54,7.94L369.78,199l-7.94,11.54Z"/><polygon class="cls-1" points="578.82 49.04 577.88 49.04 484.39 132.11 600.61 97.86 688.63 20.42 578.82 49.04"/><path class="cls-2" d="M578.82,45.29c-4.23,0-8.3,5.29-11.22,7.88L546,72.36l-52.08,46.28-12.18,10.82c-2.83,2.52.16,7.3,3.65,6.27L586.24,106c4.91-1.44,10.17-2.52,14.93-4.4,3-1.16,5.33-3.94,7.67-6L654,55.87l37.29-32.8c2.91-2.56-.2-7.17-3.65-6.27l-96,25-13.86,3.61c-4.67,1.22-2.69,8.46,2,7.24l96-25L689.63,24,686,17.77,607.75,86.59l-6.93,6.1c-.31.27-2.86,2.07-2.82,2.48-.08-.75,2.56-.83,1-.76a10.9,10.9,0,0,0-2.12.62l-8,2.35-59.35,17.49L483.4,128.5l3.64,6.26,81.84-72.71,11.65-10.36-2.65,1.1h.94C583.64,52.79,583.65,45.29,578.82,45.29Z"/><polygon class="cls-1" points="202.52 50.59 106.57 3.7 3.75 83.65 109.03 133.66 202.52 50.59"/><path class="cls-2" d="M204.41,47.35,120.4,6.3,108.47.47a4,4,0,0,0-4.55.58L13.78,71.14,1.1,81c-1.83,1.42-1.25,4.93.76,5.89L94.1,130.7l13,6.19a3.93,3.93,0,0,0,4.55-.58l81.83-72.72,11.65-10.35c3.62-3.22-1.7-8.5-5.3-5.31L118,120.65,106.38,131l4.55-.58L18.69,86.61l-13-6.2.76,5.89L96.55,16.21l12.67-9.85-4.54.58,84,41.05,11.94,5.83C205,55.93,208.75,49.47,204.41,47.35Z"/></g></g></svg>