<svg xmlns="http://www.w3.org/2000/svg" xmlns:xlink="http://www.w3.org/1999/xlink" viewBox="0 0 480.69 579.64"><defs><style>.cls-1{fill:none;}.cls-2{clip-path:url(#clip-path);}.cls-3{opacity:0.3;}.cls-4{fill:#dbdbdb;}.cls-5{fill:#5b5b5b;}.cls-6{fill:#282828;}.cls-7{fill:#fff;}.cls-8{opacity:0.72;}.cls-9{clip-path:url(#clip-path-2);}.cls-10{opacity:0.36;}.cls-11{clip-path:url(#clip-path-3);}</style><clipPath id="clip-path" transform="translate(-212.4 -103.65)"><rect class="cls-1" width="622.02" height="540.56"/></clipPath><clipPath id="clip-path-2" transform="translate(-212.4 -103.65)"><rect class="cls-1" x="504.75" y="231.15" width="97.89" height="237.85" transform="translate(-81.9 191.47) rotate(-18.29)"/></clipPath><clipPath id="clip-path-3" transform="translate(-212.4 -103.65)"><rect class="cls-1" x="309.08" y="506.01" width="316.25" height="157.35" transform="translate(-159.9 176.18) rotate(-18.29)"/></clipPath></defs><title>小石冒出</title><g id="圖層_2" data-name="圖層 2"><g id="圖層_1-2" data-name="圖層 1"><g class="cls-2"><g class="cls-3"><path class="cls-4" d="M338,226.79,552.5,186.93a25.26,25.26,0,0,1,27.75,35L532.12,331.78a25.28,25.28,0,0,0,9.57,31.45l128.81,82A25.26,25.26,0,0,1,678,480.56L582.81,623.44a25.28,25.28,0,0,1-16.55,10.86L357.22,672c-21.39,3.86-37.33-19.3-26.11-37.91l59.25-98.18a25.27,25.27,0,0,0-9.76-35.35L236.69,423.88a25.26,25.26,0,0,1-9.52-35.72l94-150A25.24,25.24,0,0,1,338,226.79" transform="translate(-212.4 -103.65)"/><path class="cls-5" d="M632.21,360.39c-1.46-9.82,3-27.46,12.25-31.41,6.55-2.82,10.7-9.31,8.31-16.53-2.09-6.33-10-11.14-16.52-8.32-20.63,8.87-33.45,35.6-30.18,57.57,1,7.05,6.1,12.8,13.73,12.42,6.59-.34,13.46-6.67,12.41-13.73" transform="translate(-212.4 -103.65)"/><path class="cls-5" d="M304.65,500.9c-20.19-8-49.8-5.22-64,13-10.3,13.24,9.24,30.67,19.63,17.31,6.61-8.51,22.83-10.81,32.57-6.93,15.57,6.21,27.46-17.11,11.76-23.37" transform="translate(-212.4 -103.65)"/><path class="cls-6" d="M357.2,338a17.89,17.89,0,1,1-22.54-11.5A17.89,17.89,0,0,1,357.2,338" transform="translate(-212.4 -103.65)"/><path class="cls-6" d="M468.71,301.88a17.89,17.89,0,1,1-22.54-11.5,17.9,17.9,0,0,1,22.54,11.5" transform="translate(-212.4 -103.65)"/><path class="cls-6" d="M413.55,374.92l-.3.11c-20.52,6.64-40.35.25-45.16-14.56a6.55,6.55,0,0,1,4.17-8.23h0a6.55,6.55,0,0,1,8.24,4.2c2.14,6.61,14.44,10.76,28.67,6.15,14-4.7,21.76-15.19,19.61-21.8a6.55,6.55,0,0,1,4.17-8.23h0a6.55,6.55,0,0,1,8.24,4.21c4.78,14.73-7.39,31.45-27.72,38.17" transform="translate(-212.4 -103.65)"/><path class="cls-5" d="M368,106.28c-10.06,3.33-24,10.32-33.89,24.8-6.33,9.29-8.07,24.39-9.52,33.95-1.69,11.12-3.88,20.74-5.1,25.77a2.33,2.33,0,0,0,2.88,2.8c1.38-.38,3.08-.88,5-1.52,11.29-3.73,30.74-12.29,42.41-29.38,14.5-21.26,12.31-48.93,11.28-57a2.3,2.3,0,0,0-2.68-2,68.9,68.9,0,0,0-10.4,2.59" transform="translate(-212.4 -103.65)"/><path class="cls-5" d="M269.92,175.44a32.57,32.57,0,0,0-3.35,1.3,2.31,2.31,0,0,0-1,3.32c2.57,4.23,9.17,13.49,19.39,17,9.13,3.16,18.81,1,24.08-.79l.21-.06a2.33,2.33,0,0,0,.77-4c-1.94-1.67-4.63-4.08-7.46-6.88-3.21-3.18-8.06-8.36-13-10.08a30.5,30.5,0,0,0-19.61.14" transform="translate(-212.4 -103.65)"/><path class="cls-5" d="M340,237.51l-2-10.72,2,10.72,214.54-39.86a13.86,13.86,0,0,1,10.16,1.86,14.81,14.81,0,0,1,6.16,7.85,14,14,0,0,1-.54,10.17L522.14,327.41a36.13,36.13,0,0,0,13.7,45l128.8,82a14.37,14.37,0,0,1,4.24,20.07L573.73,617.4a14.39,14.39,0,0,1-7.45,5.67,14.06,14.06,0,0,1-2,.5l-209,37.67a13.84,13.84,0,0,1-10.16-1.91,15,15,0,0,1-6.1-7.86,14.11,14.11,0,0,1-.65-5.77,14.35,14.35,0,0,1,2.07-6l59.24-98.19a36.16,36.16,0,0,0-14-50.6L241.82,414.25A14.36,14.36,0,0,1,236.4,394l94-149.95a14.29,14.29,0,0,1,7.66-6,13.31,13.31,0,0,1,1.88-.49m-8.73-20.22a36.2,36.2,0,0,0-19.29,15.13l-94,150a36.15,36.15,0,0,0,13.64,51.13l143.91,76.64a14.36,14.36,0,0,1,5.54,20.1l-59.24,98.18a36.2,36.2,0,0,0-5.09,15.07,35.67,35.67,0,0,0,1.64,14.82,36.72,36.72,0,0,0,15.08,19.41,35.69,35.69,0,0,0,25.74,5l209-37.66a36.09,36.09,0,0,0,23.69-15.54L687,486.61a36.17,36.17,0,0,0-10.68-50.56l-128.8-82a14.35,14.35,0,0,1-5.44-17.87l48.13-109.89a35.8,35.8,0,0,0,1.28-25.75A36.65,36.65,0,0,0,576.24,181a35.83,35.83,0,0,0-25.73-4.82L336,216.07h0a35.94,35.94,0,0,0-4.75,1.22" transform="translate(-212.4 -103.65)"/><path class="cls-7" d="M510.44,415.71l-51,17-51-18.12c-5.91-2.1-10.9,2-7.08,5.65l31.29,30.14-18.35,24.46c-1.84,2.46,3.65,5.28,7.78,4l39.15-11.8,41.77,14.08c4.44,1.5,9.87-1.07,7.69-3.69l-21.58-25.92,29.34-29.84c3.63-3.69-2.08-8-8.07-6" transform="translate(-212.4 -103.65)"/><g class="cls-8"><g class="cls-9"><path class="cls-7" d="M630,450.12a7.9,7.9,0,0,1-6.77-.84l-33.52-21.35a7.95,7.95,0,1,1,8.54-13.41l33.52,21.35A7.94,7.94,0,0,1,630,450.12m-83.81-53.37a8,8,0,0,1-6.77-.84L528,388.66a54.6,54.6,0,0,1-20.76-68.24L515,302.65A7.95,7.95,0,1,1,529.56,309l-7.78,17.77a38.68,38.68,0,0,0,14.75,48.45l11.38,7.25a7.95,7.95,0,0,1-1.77,14.25M540.72,277A8,8,0,0,1,531,266.25l15.95-36.41a7.95,7.95,0,1,1,14.56,6.38l-16,36.41a7.94,7.94,0,0,1-4.79,4.36" transform="translate(-212.4 -103.65)"/></g></g><g class="cls-10"><g class="cls-11"><path class="cls-5" d="M400.62,523.83s-48.77,80.16-1,82.53c68,3.39,220.18-45.71,225.35-47.42s-51.43,73.47-51.43,73.47l-156.18,31.8-71.94,3.69L322.6,651.05,349,600.72Z" transform="translate(-212.4 -103.65)"/></g></g></g></g></g></g></svg>