<svg xmlns="http://www.w3.org/2000/svg" viewBox="0 0 866.8 1081.98"><defs><style>.cls-1{fill:#dbdbdb;}.cls-2,.cls-6{fill:#5b5b5b;}.cls-3{fill:#282828;}.cls-4{fill:#fff;}.cls-5{opacity:0.72;}.cls-6{opacity:0.36;}</style></defs><title>小石</title><g id="圖層_2" data-name="圖層 2"><g id="圖層_1-2" data-name="圖層 1"><path class="cls-1" d="M354.7,197.69l407,55.5c37.82,5.16,54.46,50.52,28.94,78.91l-151,168a47.57,47.57,0,0,0-1.47,61.86L820,784.66a47.56,47.56,0,0,1-7.53,67.52L558,1051.35a47.54,47.54,0,0,1-36,9.63L126.1,1004.79c-40.51-5.75-55.34-56.57-24.27-83.2L265.73,781.1a47.55,47.55,0,0,0,3.45-68.94l-211.93-222a47.56,47.56,0,0,1,4.07-69.47L318,208.18A47.5,47.5,0,0,1,354.7,197.69Z"/><path class="cls-2" d="M801.73,610.34c3.19-18.4,21.68-47.27,40.44-48.9,13.37-1.16,24.63-10.33,24.63-24.63,0-12.55-11.23-25.79-24.63-24.63-42.09,3.66-80.8,43.86-87.94,85.07-2.29,13.22,3.33,26.48,17.2,30.3C783.41,630.84,799.43,623.59,801.73,610.34Z"/><path class="cls-2" d="M133.21,668c-31.34-26.33-85.94-38.75-122-14.58C-15,671,9.6,713.66,36.07,695.92c16.84-11.3,47.19-5.83,62.31,6.87C122.53,723.07,157.56,688.41,133.21,668Z"/><circle class="cls-3" cx="289.68" cy="407.7" r="33.68"/><circle class="cls-3" cx="510.36" cy="408.97" r="33.68"/><path class="cls-3" d="M402.3,507.13h-.61c-40.6-.24-72.28-23.38-72.11-52.69a12.31,12.31,0,0,1,12.31-12.25H342a12.32,12.32,0,0,1,12.25,12.38c-.07,13.08,19.47,27.76,47.62,27.93,27.85-.12,47.86-14.31,47.93-27.38a12.32,12.32,0,0,1,12.32-12.24h.07a12.31,12.31,0,0,1,12.24,12.39C474.22,484.43,442.6,507.13,402.3,507.13Z"/><path class="cls-2" d="M479.52,0c-19.95,0-49,4.26-75.23,24.31-16.81,12.85-28.83,38.82-37.08,55-9.6,18.88-19.18,34.79-24.34,43.06a4.38,4.38,0,0,0,3.5,6.7c2.69.14,6,.26,9.87.26,22.38,0,62.2-3.8,93.15-27.47,38.49-29.43,50.92-80.18,53.86-95.25a4.33,4.33,0,0,0-3.61-5.15A130.48,130.48,0,0,0,479.52,0"/><path class="cls-2" d="M263.42,65.68a62.07,62.07,0,0,0-6.74.36,4.35,4.35,0,0,0-3.78,5.33c2.1,9.09,8.42,29.53,24.6,41.89C292,124.32,310.55,126.09,321,126.09h.41a4.39,4.39,0,0,0,3.74-6.65c-2.5-4.13-5.89-10-9.28-16.7C312,95.16,306.41,83,298.56,77c-12.24-9.36-25.82-11.35-35.14-11.35"/><path class="cls-2" d="M351.92,218l2.78-20.33L351.93,218l407,55.51A26.24,26.24,0,0,1,776,282.86a28,28,0,0,1,6.37,17.68,26.29,26.29,0,0,1-7,17.85l-150.95,168a68.07,68.07,0,0,0-2.11,88.56L804.11,797.63A27,27,0,0,1,799.82,836L545.33,1035.18a27.21,27.21,0,0,1-20.47,5.48L129,984.47a26.07,26.07,0,0,1-17-9.41,28.21,28.21,0,0,1-6.25-17.66,26.06,26.06,0,0,1,2.25-10.69,27,27,0,0,1,7.24-9.53L279.09,796.69A68.09,68.09,0,0,0,284,698L72.09,476a27,27,0,0,1,2.31-39.48L331,224a27,27,0,0,1,17.24-6.22,27.83,27.83,0,0,1,3.64.25m-3.64-41.3a68.08,68.08,0,0,0-43.42,15.65L48.23,404.85A68.07,68.07,0,0,0,42.4,504.3l211.94,222a27,27,0,0,1-2,39.19L88.47,906a68.11,68.11,0,0,0-18,23.94,67.21,67.21,0,0,0-5.83,27.45A69.21,69.21,0,0,0,80.13,1001a67.35,67.35,0,0,0,43.08,24.1L519.1,1081.3a68,68,0,0,0,51.53-13.79l254.5-199.17a68.09,68.09,0,0,0,10.79-96.66L654.15,549a27,27,0,0,1,.84-35.16l151-168a67.45,67.45,0,0,0,17.5-45.28,69,69,0,0,0-15.8-43.86,67.48,67.48,0,0,0-43.14-23.83l-407-55.5h0a68.2,68.2,0,0,0-9.21-.63"/><path class="cls-4" d="M551.37,637.28l-101.16.26L369.83,575c-9.33-7.25-20.65-2.93-16,5.91l38.11,72.38L344.71,686.2c-4.76,3.31,3.39,11.59,11.52,11.81l76.95,2,66.33,49.85c7.05,5.3,18.28,3.92,15.93-2l-23.26-59.09,70.08-36C570.92,648.31,563.27,637.25,551.37,637.28Z"/><g class="cls-5"><path class="cls-4" d="M744.66,769.4a14.94,14.94,0,0,1-11.6-5.5l-47.31-58A15,15,0,0,1,708.94,687l47.31,58a15,15,0,0,1-11.59,24.42ZM626.39,624.48a14.94,14.94,0,0,1-11.6-5.5l-16.07-19.69a102.74,102.74,0,0,1,3.2-134.23l24.41-27.17a15,15,0,1,1,22.26,20l-24.41,27.16a72.81,72.81,0,0,0-2.27,95.3L638,600.05a15,15,0,0,1-11.59,24.43Zm61.08-217.27a15,15,0,0,1-11.12-25l50-55.65a15,15,0,0,1,22.26,20l-50,55.65A14.9,14.9,0,0,1,687.47,407.21Z"/></g><path class="cls-6" d="M291.2,765.66s-134.55,114.45-50.62,146.9C360.16,958.8,661.16,961,671.41,961s-135.34,100.94-135.34,100.94l-298-35.46L107.35,990.54,76.58,947l76.92-74.36Z"/></g></g></svg>