<?xml version="1.0" encoding="utf-8"?>
<!-- Generator: Adobe Illustrator 23.0.1, SVG Export Plug-In . SVG Version: 6.00 Build 0)  -->
<svg version="1.1" id="圖層_1" xmlns="http://www.w3.org/2000/svg" xmlns:xlink="http://www.w3.org/1999/xlink" x="0px" y="0px"
	 viewBox="0 0 409.6 436.9" style="enable-background:new 0 0 409.6 436.9;" xml:space="preserve">
<style type="text/css">
	.st0{clip-path:url(#SVGID_2_);}
	.st1{opacity:0.3;}
	.st2{fill:#DBDBDB;}
	.st3{fill:#5B5B5B;}
	.st4{fill:#282828;}
	.st5{fill:#FFFFFF;}
	.st6{opacity:0.72;}
	.st7{clip-path:url(#SVGID_4_);}
	.st8{opacity:0.36;}
	.st9{clip-path:url(#SVGID_6_);}
</style>
<title>小石冒出</title>
<g>
	<g id="圖層_1-2">
		<g>
			<defs>
				<rect id="SVGID_1_" x="-212.4" y="-103.6" width="622" height="540.6"/>
			</defs>
			<clipPath id="SVGID_2_">
				<use xlink:href="#SVGID_1_"  style="overflow:visible;"/>
			</clipPath>
			<g class="st0">
				<g class="st1">
					<path class="st2" d="M125.6,123.1l214.5-39.9c13.7-2.6,26.9,6.5,29.5,20.2c0.9,5,0.3,10.1-1.7,14.8l-48.1,109.9
						c-5,11.4-0.9,24.8,9.6,31.5l128.8,82c11.8,7.5,15.3,23.1,7.8,34.9c-0.1,0.2-0.2,0.3-0.3,0.5l-95.2,142.9
						c-3.8,5.7-9.8,9.6-16.5,10.9l-209,37.7c-21.4,3.9-37.3-19.3-26.1-37.9l59.2-98.2c7.2-12,3.4-27.5-8.6-34.7
						c-0.4-0.2-0.8-0.5-1.2-0.7L24.3,320.2c-12.3-6.6-17-21.9-10.4-34.2c0.3-0.5,0.6-1,0.9-1.5l94-150
						C112.5,128.5,118.6,124.4,125.6,123.1"/>
					<path class="st3" d="M419.8,256.7c-1.5-9.8,3-27.5,12.2-31.4c6.5-2.8,10.7-9.3,8.3-16.5c-2.1-6.3-10-11.1-16.5-8.3
						c-20.6,8.9-33.5,35.6-30.2,57.6c1,7,6.1,12.8,13.7,12.4C414,270.1,420.9,263.8,419.8,256.7"/>
					<path class="st3" d="M92.2,397.3c-20.2-8-49.8-5.2-64,13c-10.3,13.2,9.2,30.7,19.6,17.3c6.6-8.5,22.8-10.8,32.6-6.9
						C96,426.8,107.9,403.5,92.2,397.3"/>
					<path class="st4" d="M144.8,234.4c3,9.4-2.1,19.5-11.5,22.5c-9.4,3-19.5-2.1-22.5-11.5c-3-9.4,2.1-19.5,11.5-22.5
						C131.7,219.8,141.7,224.9,144.8,234.4C144.8,234.3,144.8,234.3,144.8,234.4"/>
					<path class="st4" d="M256.3,198.2c3,9.4-2.1,19.5-11.5,22.5c-9.4,3-19.5-2.1-22.5-11.5c-3-9.4,2.1-19.5,11.5-22.5
						C243.2,183.7,253.3,188.8,256.3,198.2"/>
					<path class="st4" d="M201.1,271.3l-0.3,0.1c-20.5,6.6-40.4,0.2-45.2-14.6c-1.1-3.4,0.8-7.1,4.2-8.2l0,0
						c3.4-1.1,7.1,0.8,8.2,4.2c2.1,6.6,14.4,10.8,28.7,6.1c14-4.7,21.8-15.2,19.6-21.8c-1.1-3.4,0.8-7.1,4.2-8.2l0,0
						c3.4-1.1,7.1,0.8,8.2,4.2C233.6,247.9,221.4,264.6,201.1,271.3"/>
					<path class="st3" d="M155.6,2.6c-10.1,3.3-24,10.3-33.9,24.8c-6.3,9.3-8.1,24.4-9.5,33.9c-1.7,11.1-3.9,20.7-5.1,25.8
						c-0.3,1.3,0.5,2.5,1.7,2.8c0.4,0.1,0.8,0.1,1.2,0c1.4-0.4,3.1-0.9,5-1.5c11.3-3.7,30.7-12.3,42.4-29.4
						c14.5-21.3,12.3-48.9,11.3-57c-0.1-1.3-1.3-2.2-2.6-2c0,0-0.1,0-0.1,0C162.5,0.6,159,1.5,155.6,2.6"/>
					<path class="st3" d="M57.5,71.8c-1.1,0.4-2.3,0.8-3.4,1.3C53,73.6,52.5,75,53,76.2c0,0.1,0.1,0.2,0.1,0.3
						c2.6,4.2,9.2,13.5,19.4,17c9.1,3.2,18.8,1,24.1-0.8l0.2-0.1c1.2-0.4,1.9-1.7,1.5-2.9c-0.1-0.4-0.4-0.8-0.7-1.1
						c-1.9-1.7-4.6-4.1-7.5-6.9c-3.2-3.2-8.1-8.4-13-10.1C70.8,69.5,63.9,69.5,57.5,71.8"/>
					<path class="st3" d="M127.6,133.9l-2-10.7L127.6,133.9L342.1,94c3.5-0.7,7.1,0,10.2,1.9c2.9,1.8,5.1,4.6,6.2,7.9
						c1.1,3.3,0.9,7-0.5,10.2l-48.2,109.9c-7.2,16.3-1.3,35.4,13.7,45l128.8,82c6.7,4.3,8.7,13.2,4.4,19.8c0,0.1-0.1,0.2-0.1,0.2
						l-95.2,142.9c-1.8,2.7-4.4,4.7-7.5,5.7c-0.7,0.2-1.3,0.4-2,0.5l-209,37.7c-3.5,0.7-7.1,0-10.2-1.9c-2.9-1.8-5-4.6-6.1-7.9
						c-0.6-1.9-0.8-3.8-0.6-5.8c0.2-2.1,0.9-4.2,2.1-6l59.2-98.2c10.3-17.1,4.8-39.3-12.3-49.6c-0.6-0.3-1.1-0.7-1.7-1L29.4,310.6
						c-7-3.7-9.6-12.4-5.9-19.4c0.1-0.3,0.3-0.5,0.5-0.8l94-149.9c1.8-2.8,4.5-5,7.7-6C126.3,134.2,126.9,134,127.6,133.9
						 M118.8,113.7c-8,2.6-14.8,8-19.3,15.1l-94,150C-5.1,295.7,0,318,16.9,328.7c0.7,0.5,1.5,0.9,2.2,1.3l143.9,76.6
						c7,3.7,9.7,12.4,5.9,19.4c-0.1,0.2-0.2,0.5-0.4,0.7l-59.2,98.2c-2.8,4.6-4.5,9.7-5.1,15.1c-0.5,5,0.1,10.1,1.6,14.8
						c2.6,8,8,14.9,15.1,19.4c7.6,4.9,16.8,6.7,25.7,5l209-37.7c9.7-1.7,18.2-7.3,23.7-15.5l95.2-143c11.1-16.6,6.6-39.1-10.1-50.2
						c-0.2-0.1-0.4-0.3-0.6-0.4l-128.8-82c-6-3.8-8.3-11.4-5.4-17.9l48.1-109.9c3.6-8.1,4.1-17.3,1.3-25.8
						c-2.7-8.1-8.1-15-15.3-19.5c-7.7-4.8-16.9-6.5-25.7-4.8l-214.5,39.9l0,0C122,112.7,120.4,113.1,118.8,113.7"/>
					<path class="st5" d="M298,312.1l-51,17l-51-18.1c-5.9-2.1-10.9,2-7.1,5.6l31.3,30.1l-18.4,24.5c-1.8,2.5,3.6,5.3,7.8,4
						l39.1-11.8l41.8,14.1c4.4,1.5,9.9-1.1,7.7-3.7l-21.6-25.9l29.3-29.8C309.7,314.3,304,310,298,312.1"/>
					<g class="st6">
						<g>
							<defs>
								
									<rect id="SVGID_3_" x="292.3" y="127.5" transform="matrix(0.9495 -0.3138 0.3138 0.9495 -60.0994 119.5548)" width="97.9" height="237.9"/>
							</defs>
							<clipPath id="SVGID_4_">
								<use xlink:href="#SVGID_3_"  style="overflow:visible;"/>
							</clipPath>
							<g class="st7">
								<path class="st5" d="M417.6,346.5c-2.3,0.8-4.8,0.5-6.8-0.8l-33.5-21.4c-3.7-2.3-4.9-7.2-2.6-10.9c2.3-3.7,7.2-4.9,10.9-2.6
									c0.1,0,0.1,0.1,0.2,0.1l33.5,21.4c3.7,2.3,4.8,7.3,2.5,11C420.8,344.7,419.3,345.9,417.6,346.5 M333.8,293.1
									c-2.3,0.7-4.8,0.4-6.8-0.8l-11.4-7.2c-22.9-14.5-31.7-43.5-20.8-68.2l7.8-17.8c1.6-4.1,6.2-6.1,10.3-4.6s6.1,6.2,4.6,10.3
									c-0.1,0.2-0.2,0.4-0.3,0.6l-7.8,17.8c-7.8,17.6-1.5,38.2,14.8,48.5l11.4,7.2c3.7,2.4,4.8,7.3,2.4,11
									C337,291.3,335.5,292.5,333.8,293.1 M328.3,173.4c-4.2,1.3-8.7-1.1-10-5.3c-0.5-1.8-0.5-3.7,0.3-5.4l16-36.4
									c1.7-4.1,6.3-6,10.4-4.3s6,6.3,4.3,10.4c0,0.1-0.1,0.2-0.1,0.3l-16,36.4C332.2,171,330.5,172.6,328.3,173.4"/>
							</g>
						</g>
					</g>
					<g class="st8">
						<g>
							<defs>
								
									<rect id="SVGID_5_" x="96.7" y="402.4" transform="matrix(0.9495 -0.3138 0.3138 0.9495 -138.0961 104.2633)" width="316.2" height="157.3"/>
							</defs>
							<clipPath id="SVGID_6_">
								<use xlink:href="#SVGID_5_"  style="overflow:visible;"/>
							</clipPath>
							<g class="st9">
								<path class="st3" d="M188.2,420.2c0,0-48.8,80.2-1,82.5c68,3.4,220.2-45.7,225.3-47.4s-51.4,73.5-51.4,73.5L205,560.6
									l-71.9,3.7l-22.8-16.9l26.4-50.3L188.2,420.2z"/>
							</g>
						</g>
					</g>
				</g>
			</g>
		</g>
	</g>
</g>
</svg>
